<?xml version="1.0" standalone="no"?>
<!DOCTYPE svg PUBLIC "-//W3C//DTD SVG 1.1//EN" "http://www.w3.org/Graphics/SVG/1.1/DTD/svg11.dtd" >
<svg xmlns="http://www.w3.org/2000/svg" xmlns:xlink="http://www.w3.org/1999/xlink" version="1.1">
<metadata>
Created by FontForge 20170731 at Mon Aug  5 03:51:40 2019
 By Aleksey,,,
Copyright (c) 2019 by Vunira Design. All rights reserved.
</metadata>
<defs>
<font id="Viera" horiz-adv-x="357" >
  <font-face 
    font-family="Viera"
    font-weight="400"
    font-stretch="normal"
    units-per-em="1000"
    panose-1="0 0 0 0 0 0 0 0 0 0"
    ascent="800"
    descent="-200"
    x-height="379"
    cap-height="614.5"
    bbox="-219.129 -393.571 820.882 860.64"
    underline-thickness="50"
    underline-position="-200"
    unicode-range="U+000D-F6C0"
  />
<missing-glyph horiz-adv-x="200" 
 />
    <glyph glyph-name="a_e" unicode="ae" horiz-adv-x="675" 
d="M737 235q8 -8 6 -28q-1 -25 -37.5 -84t-78.5 -105q-18 -20 -47.5 -44t-50.5 -34q-82 -37 -143 -34.5t-98 30.5t-46 72l-5 24l-21 -14q-22 -13 -52 -15q-26 -2 -43 3.5t-43 25.5q-90 64 -82 172q3 54 30 98.5t68 72t87.5 41.5t92.5 10.5t80 -23.5q32 27 64 27
q33 0 68.5 -18t56.5 -46q25 -32 17 -78q-11 -71 -49.5 -112t-93.5 -41h-25l1 -64q1 -70 11 -77v-1q6 -3 16 -3q31 0 78 21.5t84 52.5q30 25 44 39q27 29 81 113q15 22 18 24q3 3 12 -5zM398 180q-2 -11 -1 -12.5t9 0.5q8 1 29 14q57 36 68 116q8 54 -10 67q-12 11 -42 -34
q-34 -49 -53 -151zM70 324l13 20l-13 -13q-31 -29 -43 -81q-7 -31 -5 -34l5 10q1 4 3 11q7 25 17 49q12 25 23 38zM297 363l8 14l-30 -2q-43 -2 -84 -32q-59 -41 -82 -129q-27 -104 10 -160q15 -23 44 -6q9 5 45 41l32 33l5 40q7 50 23 112t29 89zM316 359q3 6 11 16
q0 1 -3 0q-3 -2 -8 -16zM379 384q9 10 10 14q1 5 -15 -10h1l1 -1z" />
    <glyph glyph-name="t_t" unicode="tt" horiz-adv-x="518" 
d="M580 199q10 0 17 -6t7 -14q0 -13 -12 -54.5t-23 -68.5q-24 -59 -60 -124q-12 -20 -39.5 -52t-37.5 -38q-44 -22 -76 -9.5t-53 50t-30.5 79t-9.5 77.5v4q-19 -21 -26 -25q-44 -22 -76 -9.5t-53 50t-31 79t-10 77.5q1 90 10 144l9 62q-1 1 -16.5 -7t-17.5 -11q-5 -8 -15 2
q-12 12 -1.5 28.5t39.5 32.5q26 15 26 19q1 3 27 96q51 180 61 192q5 5 21.5 1.5t27.5 -11.5q15 -13 21.5 -30.5t7.5 -52.5q2 -73 -13 -160q-2 -10 -1 -12t8 -2q9 0 30.5 -5.5t29.5 -9.5q15 -9 15 -21q0 -4 -56 -9q-36 -4 -37 -5t-10 -42q-18 -95 -32.5 -206t-10.5 -129
q1 -7 2 -8.5t3 -1.5t8 3q24 12 63 60q0 7 7 51q4 27 6.5 44.5t1.5 17.5q0 1 -8 -2.5t-16.5 -8.5t-9.5 -7q-4 -9 -15 2q-12 12 -1.5 28t40.5 33q25 15 26 19q0 1 26 96q51 180 61 192q5 5 21.5 1.5t27.5 -11.5q15 -13 21.5 -30.5t7.5 -52.5q4 -66 -13 -160q-2 -10 -0.5 -12
t8.5 -2q9 0 30 -5.5t29 -9.5q16 -9 16 -21q0 -4 -57 -9q-36 -4 -37 -5q-2 -2 -9 -42q-18 -96 -33 -206.5t-11 -128.5q1 -9 3 -10t10 3q15 7 38.5 31.5t39.5 48.5q61 91 87 201q4 15 6.5 18t10.5 4zM114 358q0 9 -1 11q-1 -2 -1 -6l1 -7zM124 413q1 6 2 11.5t1 9t-1 3.5
q-2 0 -7 -25t-4 -33q1 -4 2 2q1 4 7 32zM169 601q6 25 12.5 52t10.5 45t5 20l-22 -76l-7 -25l-8 -32q-22 -87 -20 -87h1q5 0 28 103zM364 441q-4 -15 -11 -40q-20 -79 -18 -79h1q4 0 29 103q27 115 27 117l-19 -67q-5 -16 -9 -34zM322 261q-2 0 -7 -25t-5 -33q2 4 3 5
q3 10 6 29l2 12t1 8.5v3.5z" />
    <glyph glyph-name="l_l" unicode="ll" horiz-adv-x="502" 
d="M554 172q7 -1 8.5 -4t1.5 -14q-1 -29 -50 -128q-51 -105 -100 -152q-61 -57 -123 -33q-15 6 -26.5 14t-19.5 14.5t-13.5 19t-8.5 18.5t-5 23t-2.5 22t-1.5 25t-1 24q0 34 1 54q-54 -45 -111 -22q-15 5 -26.5 13t-19.5 14.5t-13.5 19t-8.5 18.5t-5 23t-2.5 22t-1.5 25
t-1 24q1 90 18 232t38 242q11 57 17 76t16 28q9 11 30 11q20 0 34 -12q22 -19 24 -69t-15 -195q-15 -142 -32 -234q-5 -25 -8 -98t0 -89q3 -14 8 -14q6 0 26 20t39 44q16 181 48 341q19 89 33 104q11 11 30 11q21 0 34 -12q23 -20 24.5 -69t-14.5 -195q-18 -161 -33 -235
q-5 -26 -8 -98.5t0 -88.5q3 -14 9 -14q7 0 36 31.5t48 59.5q24 35 60 109q30 59 43 77t24 17zM132 750q5 13 2 15q-1 2 -5 -5l-2 -4q-6 -14 -20.5 -101t-22.5 -162q-4 -32 -12.5 -92t-14 -108.5t-5.5 -92.5v-52q0 6 2 33t3 42q7 67 12 97q9 60 17 139q7 72 23 171.5
t23 119.5zM272 301q-5 -38 -15 -112q3 5 9 17q2 16 7 62q8 74 23.5 172.5t22.5 118.5q4 13 2 15q-1 2 -5 -5l-2 -4q-6 -14 -20 -101t-22 -163zM240 -43q0 4 5 74q1 10 3.5 33.5t2.5 27.5q-1 -1 -3.5 -4t-3.5 -5q-3 -24 -5 -75z" />
    <glyph glyph-name=".notdef" horiz-adv-x="200" 
 />
    <glyph glyph-name=".null" horiz-adv-x="0" 
 />
    <glyph glyph-name="nonmarkingreturn" horiz-adv-x="333" 
 />
    <glyph glyph-name="NULL" horiz-adv-x="0" 
 />
    <glyph glyph-name="NULL" horiz-adv-x="0" 
 />
    <glyph glyph-name="CR" unicode="&#xd;" horiz-adv-x="200" 
 />
    <glyph glyph-name="space" unicode=" " horiz-adv-x="200" 
 />
    <glyph glyph-name="exclam" unicode="!" horiz-adv-x="339" 
d="M251 711q16 16 35.5 11.5t32.5 -27.5q7 -14 6 -93t-10 -162q-27 -228 -31 -307.5t7 -119.5q3 -9 -6 -8q-7 1 -25 8q-23 11 -33 14q-60 21 -65 178q-2 58 6.5 163.5t19.5 161.5q30 148 63 181zM269 -32q11 -8 19.5 -23.5t8.5 -25.5q0 -25 -37 -25q-22 0 -28 2
q-12 8 -24 20q-18 17 -18 29q0 10 8 19.5t16 9.5q6 0 6 4q1 3 9.5 2.5t21 -4t18.5 -8.5zM258 674q9 26 7 26q-1 0 -3 -3q-14 -17 -36 -125q-18 -97 -25 -176q-2 -30 -8 -82q-3 -27 -3 -97l1 -65l3 67q2 68 9 143q7 83 23 175.5t32 136.5z" />
    <glyph glyph-name="quotedbl" unicode="&#x22;" horiz-adv-x="255" 
d="M277 737q22 -4 39.5 -31t19.5 -59q2 -26 -8 -48q-18 -40 -48 -54q-27 -12 -38 2q-8 8 -8 13t16 33q42 79 22 123q-8 17 -7 20t12 1zM140 743q14 0 29.5 -25.5t17.5 -50.5q3 -32 -7 -60t-28 -39q-29 -16 -44 1l-8 10l10 29q28 91 11 124q-6 12 -2 16t9 0q3 -5 12 -5z" />
    <glyph glyph-name="numbersign" unicode="#" horiz-adv-x="584" 
d="M503 269l-4 -39l-2 -38l13 -7q41 -25 41 -35t-39 7l-14 6l-1 -68q0 -83 -6.5 -108t-31.5 -34q-43 -16 -56 -4q-10 8 -13 8q-5 0 -10 14q-6 15 -5 97q0 89 -2 97q-2 10 -4 11.5t-12 -0.5q-15 -2 -17 -5q-3 -3 -5 -59q-5 -138 -26 -165q-8 -10 -32 -13q-26 -4 -28 -5
q-5 -3 -17 3q-10 5 -16 11q-5 5 -11 8q-17 10 -4 52q5 17 11.5 62.5t4.5 47.5q-3 2 -17 -12q-20 -20 -30 -7q-18 24 29 66l23 21v39v38l-27 -9q-38 -13 -48 -3q-5 5 -1 12q12 15 48 34q20 10 24 14t6 15q11 99 18 133t20 52q25 37 63 19q14 -7 17 -24t0 -83l-2 -80l12 2
q10 3 21 3q6 0 8.5 4.5t5.5 21.5q12 65 49 110q25 29 35 32q29 11 48 -8q13 -11 12 -34.5t-20 -125.5q-6 -32 -1 -35q9 -6 30 -18q16 -10 29 -23t13 -20q0 -10 -52 12q-11 5 -19 8t-8 2zM231 -12q14 46 14 87q0 6 -3 -2q-2 -8 -5 -24q-5 -40 -13 -57q-6 -18 -6 -22
q0 -12 7 2q3 6 6 16zM267 442q2 5 0 7q-2 1 -2 -1q-1 -2 0 -4zM289 504l6 13l-9 -11q-18 -22 -18 -47q1 -4 5 5q1 3 3 7q4 15 13 33zM375 256q1 21 1 24.5v10.5q-1 1 -18 -1.5t-19 -4.5q-3 -3 -5 -34l-2 -31l21 1l20 2zM404 14v0q2 32 1 33l-5 -19v-5q-2 -24 -4 -33
q-2 -6 1 -6t7 30zM474 487l4 9q-1 0 -4 -3q-17 -14 -37 -57.5t-20 -65.5q1 -5 5 5l6 18q11 34 25 59q17 31 21 35z" />
    <glyph glyph-name="dollar" unicode="$" horiz-adv-x="429" 
d="M340 580q12 -5 34 -27q58 -55 31 -126q-7 -19 -16.5 -31.5t-18 -14.5t-15.5 5q-5 7 3 42q8 30 8 47q0 20 -13 46.5t-23 26.5q-3 0 -9 -73q-2 -45 -14 -168l-11 -93l35 -44q70 -86 70 -155q0 -42 -17 -65q-11 -14 -40 -31t-54 -22q-7 -1 -9 -7.5t-5 -39.5
q-4 -40 -10 -48.5t-26 -3.5q-18 6 -30 63l-6 32l-37 18q-41 20 -61.5 45.5t-26.5 65.5q-12 84 58 107q29 10 46 -1q5 -4 -1 -11q-12 -13 -8.5 -62t18.5 -80l8 -17l1 40q0 19 7 115l7 76l-21 22q-43 44 -73 103q-20 38 -26 59t-6 51q1 76 42 124t110 53l30 2l1 12q4 24 5 38
l3 27l13 1q12 0 24 -9q8 -8 9.5 -14t1.5 -34v-37zM169 546q5 8 4 7.5t-12 -10.5q-29 -28 -34 -72l-2 -20l9 25q10 26 18 42q13 23 17 28zM105 62q5 25 3 27t-4 -6q-5 -14 -5 -29l1 -10q1 1 5 18zM224 50q2 9 0 16q-1 3 -1 -1q-1 -3 -1 -8l2 -8v1zM227 100q2 5 0 10
q-1 -3 -2 -5l1 -6zM261 511q2 14 -2 14q-6 0 -16.5 -27.5t-13.5 -51.5q-9 -57 0 -107q2 -15 6 -12l1 11q2 11 5 32.5t6 42.5q10 64 14 98zM286 39q0 32 -4 0l-1 -13v-17l1 2q1 4 4 28v0zM299 -23l6 5q8 8 7 27v17l-5 -22q-3 -12 -8 -27z" />
    <glyph glyph-name="percent" unicode="%" horiz-adv-x="425" 
d="M318 147q34 -2 60.5 -29t29.5 -61q4 -45 -21 -70q-9 -9 -15.5 -12t-24.5 -5q-19 -2 -25.5 -0.5t-22.5 12.5q-21 14 -28.5 29.5t-7.5 43.5q0 11 -0.5 15t-1 7.5t-3.5 1.5t-6.5 -5.5t-10.5 -11.5q-39 -45 -76 -131q-9 -20 -15 -20q-8 0 -20 -3q-13 -1 -21 5q-7 7 -15 11
q-20 13 -15 54q5 42 40.5 143t84.5 213q26 58 26 60q0 3 -23 -18q-15 -15 -21.5 -18.5t-20.5 -3.5q-32 0 -55 26q-21 26 -16 57q4 28 29 66t47 49q13 7 33.5 6t30.5 -9q20 -14 66 2q47 16 62 -8q5 -6 3.5 -16t-14.5 -48q-16 -52 -69 -203q-54 -157 -54 -158q-1 -5 1 -5
l18 13q28 24 71 21zM214 462q4 10 7 23t3.5 21t-2.5 9q-2 0 -23 -28q-28 -39 -37 -81l-2 -11l10 7q10 7 23 25q12 15 21 35zM260 515v-27q0 -27 2 -27q1 0 12 18q3 6 9 15.5t7 11.5q4 7 2.5 8t-14.5 1h-18zM121 41q17 54 77 208.5t80 193.5q3 7 6 13t4 10l1 3
q-13 0 -126 -293q-57 -148 -62 -196l-1 -22l6 25q4 17 15 58zM346 67v0q0 16 -4.5 31t-8.5 15q-3 0 -5 -32.5t0 -45.5l2 -14l8 12q8 12 8 34z" />
    <glyph glyph-name="ampersand" unicode="&#x26;" horiz-adv-x="565" 
d="M463 216q14 -8 31 -26t22 -30q10 -25 6.5 -79t-16.5 -75q-7 -13 -24 -24q-13 -9 -36 -18.5t-31 -9.5q-4 0 -5 -7.5t0 -40.5q1 -49 -4 -53q-5 -5 -23 -7.5t-20 1.5q-1 2 -15 10q-13 6 -16 20q-6 37 -16 66q-5 11 -24 13q-39 5 -69.5 21.5t-66.5 52.5q-40 40 -40 91
q0 43 28 91.5t69 76.5l21 14l-23 26q-88 97 -57 195q13 42 53 75q88 69 178 45q38 -10 63 -33q31 -30 31 -65q0 -50 -31.5 -99.5t-80.5 -73.5q-41 -20 -49 -5q-5 6 9 17q59 50 79 89q14 28 15 65q1 35 -3 41.5t-25 1.5q-40 -8 -81 -37.5t-54 -59.5q-10 -23 -11 -56.5
t7 -55.5q10 -23 21 -36q13 -13 27 -12q40 4 59.5 -0.5t35.5 -20.5q20 -19 16.5 -27.5t-38.5 -27.5q-93 -50 -122 -143q-6 -21 -5.5 -44t7.5 -30q5 -5 27 -7l22 -3v36q0 102 38 146q30 34 77 26q24 -3 44 -14zM219 571q16 17 13 17l-3 -2q-33 -22 -46 -51q-8 -21 -4 -21
q2 0 9 14q8 19 31 43zM239 268q8 4 6 7q-3 2 -23.5 -14.5t-31.5 -30.5q-32 -44 -38 -79q-1 -8 0 -7q2 1 16 27q17 35 40 64q22 29 31 33zM333 137q2 5 0 8q-1 1 -1.5 0t-0.5 -5q1 -3 2 -3zM354 187v0l3 4q-1 0 -3 -1q-4 -2 -12 -17.5t-8 -20.5q1 -3 6 9l2 4q5 12 12 22v0z
M403 35q4 2 17 15q16 19 21 35.5t7 48.5q1 40 -4 48q-4 6 -6.5 6t-10.5 -6q-11 -9 -22 -29t-13 -62q-2 -57 7 -57zM455 59q9 22 9 24q-1 2 -5 -4l-8 -16q-12 -24 -9 -24q2 0 13 20v0z" />
    <glyph glyph-name="quotesingle" unicode="'" horiz-adv-x="209" 
d="M178 731q23 -6 47 -56q22 -48 3 -99q-17 -44 -50 -51q-40 -10 -45 2q-1 5 -6 10q-5 3 6 11q15 13 30 51t15 63q0 17 -10 44q-11 24 -8 27q1 1 7 0.5t11 -2.5z" />
    <glyph glyph-name="parenleft" unicode="(" horiz-adv-x="398" 
d="M409 -76q7 0 19.5 -7t15.5 -12q4 -7 -5 -11q-8 -3 -31.5 -5t-30.5 -1q-27 7 -62.5 28t-54.5 42q-28 29 -52 77t-35 96q-26 106 -12 225q8 61 24.5 131.5t32.5 105.5q36 80 63 113q19 23 44.5 34.5t35.5 2.5q5 -5 11 -3q5 2 21.5 -9t25.5 -23q10 -14 10 -23q0 -11 -18 -54
q-93 -230 -84 -458q2 -64 10 -98.5t29 -75.5q5 -9 12 -22.5t11.5 -22.5l6.5 -13q8 -17 13 -17zM221 451q2 5 0 7q-2 -3 -2 -5zM235 503q17 51 33 86q33 74 64 114q12 16 8 16q-5 0 -23 -20q-24 -25 -49.5 -82.5t-39.5 -116.5q-6 -27 -6 -31l6 12z" />
    <glyph glyph-name="parenright" unicode=")" horiz-adv-x="353" 
d="M86 710q-8 0 -20 7t-15 13q-4 7 5 10q8 3 31.5 5t30.5 1q27 -6 61.5 -27t55.5 -43q28 -29 52 -77t35 -96q26 -106 12 -225q-7 -59 -24.5 -129.5t-32.5 -107.5q-37 -82 -64 -113q-18 -22 -43 -34t-36 -3q-5 5 -11 3q-5 -2 -21.5 9t-25.5 23q-10 14 -10 23q0 11 18 54
q93 230 84 458q-2 63 -10 98t-29 76q-5 10 -12 23.5t-11.5 22.5l-6.5 13q-8 16 -13 16zM274 183q-2 -5 0 -7q1 3 2 5zM259 131q-15 -48 -32 -86q-34 -76 -64 -114q-13 -16 -8 -16t23 20q24 25 49.5 83t39.5 117q7 32 5 30.5t-13 -34.5z" />
    <glyph glyph-name="asterisk" unicode="*" horiz-adv-x="290" 
d="M277 643q14 0 29.5 -5t15.5 -9q0 -10 -65 -31q-22 -7 -28.5 -12.5t-1 -11.5t25.5 -18q28 -16 39 -16q8 0 13.5 -5.5t2.5 -10.5t-26.5 -2t-41.5 11l-22 10v-22q0 -21 9 -29q9 -7 4 -9q-4 -4 -14 -5.5t-16 1.5q-11 4 -26.5 21t-21.5 31l-8 17l-20 -19q-20 -20 -27 -20
q-6 0 -15.5 7.5t-9.5 12.5q0 12 18.5 35t35.5 31l12 7l-21 21q-22 22 -22 25q1 2 7 1.5t15.5 -4.5t16.5 -8l14 -9l4 18q14 52 31 62q7 4 23.5 0t23.5 -11t3 -22q-4 -16 -4 -27q0 -9 2 -10t12 1q16 4 33 4z" />
    <glyph glyph-name="plus" unicode="+" horiz-adv-x="453" 
d="M324 274q31 0 66 -11.5t49 -26.5q13 -15 6 -17q-8 -3 -48 -2q-49 0 -75 -2l-22 -3v-52q0 -97 -14 -95q-3 0 -17 2q-40 5 -55 98l-5 28q-1 2 -22.5 -9t-32.5 -19q-13 -11 -10 -15q2 -5 -1 -5q-4 -1 -12 10q-16 20 -1 44t59 47l24 12l5 42q6 49 9 56q2 10 7 13t9 -3
q4 -4 11 -4q13 0 24.5 -18.5t14.5 -45.5l3 -24h28z" />
    <glyph glyph-name="comma" unicode="," horiz-adv-x="131" 
d="M83 82q7 -1 17.5 -15.5t17.5 -31.5q20 -50 -4 -101q-12 -25 -29 -32q-14 -8 -18 -8h-1q-2 1 -4.5 1.5t-4.5 0.5q-9 2 -16 11l-9 9l8 11q7 11 20 47q12 38 10 60q-4 26 -7 35q-6 18 3 19q3 0 6 -2q1 -1 5.5 -2.5t5.5 -1.5z" />
    <glyph glyph-name="hyphen" unicode="-" horiz-adv-x="413" 
d="M272 220q27 -3 58.5 -13.5t41.5 -20.5q19 -19 -1 -24t-87 -5q-84 0 -113 -3q-35 -4 -39 2q-5 3 -5 8q0 4 -7 9q-5 4 -3.5 6.5t11.5 11.5q17 16 59.5 25t84.5 4z" />
    <glyph glyph-name="period" unicode="." horiz-adv-x="159" 
d="M91 103q14 -1 24 -10t27 -35q20 -30 1 -51q-10 -12 -43 -7q-17 4 -31 20q-16 16 -18 26q-2 8 2.5 23t12.5 25q5 7 9.5 9t15.5 0z" />
    <glyph glyph-name="slash" unicode="/" horiz-adv-x="327" 
d="M378 664q11 4 27.5 -12.5t16.5 -32.5q0 -18 -31.5 -107t-72.5 -188q-36 -89 -65 -159q-58 -139 -82 -168q-8 -10 -11.5 -11t-11.5 4q-7 5 -19 5q-11 0 -15 9q-4 8 -7 8t-3 6t-5 6t-8 6q-6 17 8.5 59t60.5 137q2 4 97 207q66 140 88.5 183t32.5 48zM169 178q10 23 19 42.5
t14 31.5l4 11q-1 1 -10 -17.5t-21.5 -46t-25 -55.5t-21 -48t-8.5 -22q0 -1 1 0.5t6.5 12.5t14.5 31.5t27 59.5zM223 295q4 6 4 10t-4 -2t-4 -10t4 2z" />
    <glyph glyph-name="zero" unicode="0" horiz-adv-x="450" 
d="M234 709q80 -38 130 -143q29 -63 38.5 -122t3.5 -148q-4 -81 -14 -126t-32 -89q-28 -57 -74.5 -85t-98.5 -20t-95 54q-39 43 -54.5 79.5t-15.5 88.5v275q0 159 131 238q36 20 81 -2zM131 668q-8 -10 -7 -10q3 0 11 10q9 9 7 9t-11 -9zM288 92q10 13 24 36t14 27l-15 -20
q-3 -3 -5 -7q-17 -26 -39 -53q-1 -1 -3 -4l-10 -12q1 0 7 4q12 10 27 29zM284 129q34 50 47.5 107.5t13.5 153.5q0 171 -70 244q-76 79 -113 -46q-21 -68 -21 -137q0 -15 -1.5 -85t-1.5 -117.5t5.5 -105.5t16.5 -86q3 -7 17.5 -6t32.5 9q37 17 74 69z" />
    <glyph glyph-name="one" unicode="1" horiz-adv-x="232" 
d="M163 695q20 -2 35 -17q14 -15 14 -33q0 -14 -17 -105q-20 -103 -28 -184.5t-12 -222.5q-3 -119 -11 -143q-13 -40 -60 -49q-38 -7 -49 12q-3 5 -2 11q3 14 9 36q10 30 11 118v56v-1q-5 -122 -21 -175q-12 -37 -19 -38q-4 -1 -10 11q-4 9 3 34q9 30 19 237q7 154 25 253
q9 55 34 115.5t45 76.5q10 8 15 9t19 -1zM81 478q2 5 0 10q-1 -3 -2 -5l1 -6zM140 654q13 24 11 24q-1 0 -5 -4q-9 -6 -19 -28q-10 -21 -25 -69.5t-17 -65.5q-3 -16 -1 -14q1 1 3 9q1 3 4 13t8 25.5t9 28.5q16 50 32 81z" />
    <glyph glyph-name="two" unicode="2" horiz-adv-x="435" 
d="M359 18q15 3 22.5 -10t-2.5 -23q-6 -6 -30 -8q-29 -3 -99 17q-48 15 -90 -4q-21 -10 -22 -19q-10 -43 -43 -43t-62.5 27t-31.5 52q-4 40 13 108.5t43 119.5q50 96 106 177q50 77 68 117q8 18 16 53.5t8 52.5q0 18 -7.5 25.5t-26.5 8.5q-46 5 -77 -24q-19 -17 -37 -54.5
t-26 -76.5q-6 -29 -7 -30q-3 -2 -11 3.5t-11 11.5q-14 27 8 92q15 44 31 65t45 35q25 12 61 12t59 -10t48 -36q30 -32 40.5 -65t8.5 -88q-1 -44 -12 -75q-20 -61 -106 -214q-31 -57 -50 -94q-26 -59 -26 -70q0 -3 30 -5q28 -2 81 -18q38 -11 51 -12.5t38 2.5zM62 126
q22 65 85 172q101 171 111 201q9 25 8 28q-1 4 -15 -23l-2 -4q-17 -37 -48 -86q-99 -164 -116 -199q-19 -38 -35.5 -95.5t-16.5 -86.5l2 -9q0 1 4 19l2 8q6 30 21 75v0z" />
    <glyph glyph-name="three" unicode="3" horiz-adv-x="365" 
d="M211 679q74 -24 98 -114q8 -30 5 -85t-14 -89q-27 -76 -74 -148l-21 -31l15 -10q23 -15 42.5 -48.5t23.5 -64.5q4 -27 -11 -59t-39 -49q-26 -18 -80 -14q-29 2 -42 9q-14 7 -32.5 25t-18.5 23q0 8 4.5 9.5t20.5 -1.5q30 -7 38 -6t23 11q26 18 46 55t16 61q-4 19 -14 22
t-41 -8q-25 -8 -67 11.5t-51 42.5q-4 12 0.5 23.5t23.5 39.5q39 53 82 129.5t54 109.5q13 43 19 96q2 17 -2.5 21t-22.5 3q-44 -4 -92.5 -47.5t-65.5 -94.5q-12 -37 -27 -12q-16 25 10 77q35 70 99 102q28 14 48.5 16.5t46.5 -5.5zM223 93q0 5 -8 -7q0 -2 -1 -3
q-3 -5 -11 -17.5t-10 -16.5q-11 -15 -10.5 -15.5t8.5 6.5q11 11 21 28q11 20 11 25zM209 451q14 35 11 33t-23 -40q-61 -118 -106 -174q-21 -31 -18 -32q7 0 25 23q25 31 60 91t51 99z" />
    <glyph glyph-name="four" unicode="4" horiz-adv-x="453" 
d="M358 662q8 2 20 -5.5t17 -17.5q17 -32 -6 -338q-10 -126 -10 -131q-8 -103 -10 -122t-8 -27q-21 -26 -69.5 -13.5t-63.5 45.5q-16 34 -10 116q4 48 2 50t-16 -5q-12 -6 -51 -29t-46 -29q-9 -8 -31 -12.5t-40.5 4t-12.5 34.5q0 17 63 158q10 20 63 147t56 138l-1 1
l-47 -105q-29 -71 -53 -122q-71 -162 -79 -185q-6 -12 -9 -17q-5 -10 -11 -2q-8 12 1 41t47 111q6 13 24 54t26 59q69 152 91 186q10 16 14 18t16 1q17 -4 26 -13q10 -9 10 -29q0 -34 -26 -127.5t-55 -167.5q-8 -21 -22 -56l-7 -18l20 8q24 6 39 8l19 2l4 20q1 5 5 22.5
t10 48.5t11 53q20 95 33 147q25 95 46 102q9 2 10 -1q2 -4 11 -2zM262 210v22q-1 0 -2 -3q-3 -9 -5 -71l-1 -41q1 6 2 22q1 7 3 34t3 37zM341 631q6 15 6 20v2l-9 -17q-14 -31 -47 -218q-28 -153 -26 -153l2 2q4 4 26 130q33 194 48 234z" />
    <glyph glyph-name="five" unicode="5" horiz-adv-x="443" 
d="M324 646q38 -2 46 -3t15 -8q19 -19 -14 -33q-19 -8 -76 -8q-66 0 -126 14l-12 2l-1 -28q0 -66 -16 -132q-1 -3 -2 -8q-9 -33 -4 -34q2 0 6 1h4q17 2 50.5 -5t55.5 -18q79 -37 111 -101q8 -15 14.5 -45t6.5 -49q0 -54 -19.5 -105t-50.5 -79q-55 -48 -133 -44.5t-132 54.5
q-39 37 -46 81q-3 24 7 64t20 47q6 3 14 3q14 0 18 -8t5 -40q3 -43 17 -68q60 -121 120 -36q40 58 57 158q0 5 1 9q7 57 -11 95q-6 13 -11 18.5t-16 9.5q-29 13 -89 -2t-80 9q-40 35 -21 138q33 170 50 177q10 3 65 -11q26 -6 48 -6q23 0 51 -4q37 -5 78 -5zM74 558q0 5 0 3
q-3 -5 -9 -34q-11 -49 -11 -59q0 -3 2 2q13 38 18 85v3zM84 607q7 30 7 37q0 5 -3 -2q-7 -21 -9 -44v-1l-1 -12q1 1 4 16zM285 172q8 44 4 41q-1 -1 -3 -9q-18 -70 -40 -112l-17 -36q0 -4 10 10q19 26 29 49q13 34 17 57z" />
    <glyph glyph-name="six" unicode="6" horiz-adv-x="433" 
d="M251 680q54 0 93 -40q54 -56 31 -121q-7 -21 -11 -25t-11 2q-6 8 -9 42q-6 56 -25 81q-10 13 -18.5 14.5t-24.5 -6.5q-20 -10 -33.5 -28t-37.5 -66q-50 -100 -69 -216q-7 -45 -3 -45q3 1 11 9q13 13 37 25q24 10 55 8q57 -4 96 -46q44 -48 41.5 -108.5t-52.5 -123.5
q-35 -45 -59 -56q-14 -6 -52.5 -7t-56.5 4q-32 9 -68 33.5t-52 49.5q-19 29 -24.5 51.5t-7.5 75.5q-4 133 41.5 263t116.5 193q43 37 92 37zM56 387q2 5 0 7q-1 -3 -2 -5zM313 145l-1 -1q-1 -1 -3 -4.5t-3.5 -6.5l-4.5 -9q-9 -23 -8 -23t12 21q9 22 8 23zM181 210
q-15 -23 -29.5 -39.5t-21.5 -16.5q-4 0 -4 -24t4 -47q8 -35 22 -52q7 -8 21.5 -7t27.5 10q52 35 80.5 89.5t20.5 104.5q-6 36 -24 46.5t-43.5 -6.5t-53.5 -58zM170 619q15 17 13 18l-6 -4q-27 -20 -68 -91q-11 -19 -31.5 -75t-19.5 -65l15 38q17 48 30 73q24 50 67 106z" />
    <glyph glyph-name="seven" unicode="7" horiz-adv-x="436" 
d="M345 622q7 2 20.5 -8t17.5 -21q10 -23 -27 -106q-24 -51 -51 -121q-25 -63 -68 -156q-36 -76 -60 -139q-17 -46 -41 -68t-47 -20t-43.5 15.5t-32.5 35t-12 41.5q1 61 47.5 154t174.5 288q6 10 13 21t10 16l4 6h-2q-2 1 -7 2t-10.5 1.5t-12.5 1.5q-28 1 -77.5 9t-66.5 13
q-12 4 -26.5 15.5t-14.5 17.5t15 3q86 -12 159.5 -13t98.5 10q33 14 33 4q0 -4 6 -2zM276 533q17 25 17 29q0 11 -25 -25q-22 -32 -49 -79q-10 -18 -60 -104q-128 -214 -125 -296q0 -14 9 21q7 26 19 59q29 71 98 190q50 90 69 124q25 46 47 81z" />
    <glyph glyph-name="eight" unicode="8" horiz-adv-x="451" 
d="M283 609q32 -12 59 -39q64 -64 58 -144q-2 -37 -18.5 -71t-35.5 -42q-12 -5 -49 -7l-37 -1l11 -19q45 -81 54 -107q19 -57 3 -113.5t-59 -81.5q-29 -17 -97 -10q-71 8 -127 69q-45 48 -45 121q0 79 57 136q63 61 99 25l9 -9l-9 -13q-21 -28 -36 -79q-10 -32 -11 -80.5
t7 -74.5q8 -22 17.5 -29.5t30.5 -7.5q44 0 75.5 35.5t31.5 84.5q0 61 -79 186q-31 47 -55 103q-15 37 -17.5 49t-2.5 39t1.5 35t9.5 20q14 22 33 30.5t53 7.5q36 0 69 -13zM71 282l14 19l-14 -13q-11 -11 -23 -33.5t-15 -37.5q-1 -5 3 1q3 5 8 16q8 18 27 48zM248 359
q0 6 23 54q35 70 35 113q0 21 -9 30q-17 17 -61 14q-20 -2 -31.5 -9t-20.5 -25q-25 -48 39 -169q13 -25 17 -26l3 3q5 7 5 15v0zM300 397q19 39 15 37q-2 -1 -12 -18q-14 -27 -23 -39q-8 -9 -12 -22l-2 -8l9 10q10 11 25 40z" />
    <glyph glyph-name="nine" unicode="9" horiz-adv-x="459" 
d="M314 635q27 -23 40 -57t30 -129q36 -201 19 -286q-5 -26 -25 -68.5t-37 -64.5q-37 -48 -95.5 -65.5t-115.5 4t-86 78.5q-10 20 -12 50t6 40q13 14 28 -1q5 -5 11 -32q7 -51 30 -63q12 -5 28 0q14 6 38.5 27t36.5 38q17 24 37 67t26 66l2 11l-18 -12q-20 -13 -39 -14
t-56 9q-41 9 -57 19q-24 14 -53.5 52t-40.5 70q-9 24 -10.5 60t4.5 61q21 80 84.5 129.5t139.5 44.5q47 -3 85 -34zM69 552q19 29 55 61l19 16l-17 -9q-25 -13 -49.5 -44.5t-32.5 -58.5v-5q2 3 25 40v0zM193 321v0q41 21 72 65l17 26l1 97q2 96 -2 96q-7 0 -39 -17
q-89 -42 -124 -154q-11 -35 -8.5 -77.5t15.5 -46.5q10 -3 32 0.5t36 10.5zM264 348q15 19 15 22t-10 -10l-2 -2q-11 -15 -33 -35l-22 -20l19 12q18 13 33 33zM269 128q28 58 22 54q-2 -2 -13 -22q-37 -67 -71 -103q-21 -21 -19 -22q1 0 6 3q14 7 34 27q19 19 41 63z" />
    <glyph glyph-name="colon" unicode=":" horiz-adv-x="261" 
d="M198 57q14 -7 30.5 -23.5t19.5 -27.5q2 -11 -7 -30t-20 -27t-33 -10t-34 3q-8 2 -31 23q-27 29 -21 61q2 12 14.5 25.5t21.5 13.5q8 0 10 4q2 3 18.5 -1t31.5 -11zM152 251q-27 14 -39 37q-8 16 -3 39.5t20 36.5q15 12 29 9q24 -4 45 -21.5t27 -39.5q9 -31 -16 -56
q-11 -11 -31 -11t-32 6v0zM171 10q5 10 5 17q0 5 -5 -2q-6 -9 -5 -17l1 -7l4 9v0z" />
    <glyph glyph-name="semicolon" unicode=";" horiz-adv-x="278" 
d="M216 353q31 -10 47 -39.5t2 -49.5q-10 -15 -20 -17.5t-41 2.5q-17 2 -25.5 7.5t-25.5 24.5q-22 24 -18 51q2 16 11.5 22t32.5 4q28 -2 37 -5zM195 44q38 2 54 -74q5 -29 -1 -48.5t-26 -39.5q-52 -54 -78 -28l-10 11l13 17q13 15 25 48q8 21 10 32t1 40l-2 42h14z" />
    <glyph glyph-name="less" unicode="&#x3c;" horiz-adv-x="417" 
d="M398 332q16 0 26 -12q10 -13 7.5 -22.5t-20.5 -27.5q-76 -75 -167 -105l-25 -8l29 -40q35 -49 84 -100q5 -6 14 -2q21 10 34 -8.5t-3 -34.5q-11 -9 -38 0q-19 6 -29 12q-14 8 -44 39.5t-52 61.5q-79 111 -79 121q0 5 4.5 7.5t20.5 6.5q53 14 154 72q67 40 84 40z" />
    <glyph glyph-name="equal" unicode="=" horiz-adv-x="491" 
d="M432 166q13 -1 20 -13q6 -10 1 -15t-27 -9q-24 -4 -78 3q-109 12 -159 -5q-21 -8 -24.5 -8t-9.5 8q-8 8 -2 18q12 21 58 33q22 6 76.5 5.5t91.5 -7.5q8 -1 20.5 -3.5t20.5 -4t12 -2.5zM170 210q0 1 -9 3q-6 2 -15 12t-9 15q0 2 12 16q29 29 86.5 38t110.5 -8
q71 -21 84 -45q3 -7 4 -9t0.5 -4.5t-2 -3.5t-6.5 -3q-9 -3 -51 2q-93 14 -164 -3q-37 -10 -41 -10z" />
    <glyph glyph-name="greater" unicode="&#x3e;" horiz-adv-x="434" 
d="M133 17q-16 0 -26 12q-11 13 -8.5 22.5t21.5 26.5q75 75 166 106l26 8l-29 40q-41 54 -84 100q-6 6 -14 2q-21 -10 -34.5 8t3.5 34q9 9 38 1q15 -5 29 -12t43.5 -38.5t52.5 -63.5q79 -110 79 -120q0 -8 -25 -14q-54 -14 -154 -73q-67 -39 -84 -39z" />
    <glyph glyph-name="question" unicode="?" horiz-adv-x="313" 
d="M190 -47q8 -2 22 -18t17 -26q4 -16 -3.5 -31.5t-18.5 -13.5q-5 0 -19 3q-31 5 -50 40q-12 21 7 45q10 13 34 4q9 -3 11 -3zM397 556q7 -43 -6 -85.5t-55 -116.5q-51 -89 -89 -173q-56 -129 -56 -176q0 -10 -3.5 -11t-20.5 3q-24 4 -53 47q-10 16 -12.5 23.5t-2.5 24.5
q0 47 39.5 141t108.5 207q42 70 55 99q13 31 12 64q0 33 -4.5 44t-18.5 14q-38 7 -88 -18q-24 -12 -46.5 -34.5t-34.5 -45.5q-16 -33 -15 -53.5t19 -40.5l16 -17h-11q-19 0 -40 18.5t-35 46.5q-14 31 -0.5 75t47.5 78q41 40 94 52t98 -9q84 -40 102 -157zM110 647l16 21
l-16 -18q-19 -21 -24 -30q-4 -10 -4 -10.5t4 6.5q12 15 24 31zM166 219q5 8 5 13q0 2 -2 -2q-1 -1 -3 -4q-6 -10 -6 -13q0 -4 5 3zM263 404q54 88 54 100l-15 -22q-2 -3 -4 -7q-18 -32 -40 -69q-17 -26 -48 -86.5t-31 -65.5l1 2q2 2 4.5 7t6 11t8 14t8.5 17q39 70 56 99z
" />
    <glyph glyph-name="at" unicode="@" horiz-adv-x="722" 
d="M537 547q34 -14 56.5 -37t43.5 -66q42 -89 41 -197q0 -59 -9.5 -98.5t-34.5 -88.5q-17 -32 -38.5 -59.5t-36.5 -34.5q-27 -15 -60 -2q-27 11 -50.5 41t-23.5 53q-3 19 -3 20q-3 7 -12 -7q-8 -11 -24 -19.5t-27 -8.5q-9 0 -29 4q-19 4 -42 28q-22 22 -27.5 43t-3.5 85
l2 62l-9 -27q-10 -32 -15 -78.5t-1 -74.5q10 -84 60 -135q24 -25 39 -31t55 -6q66 0 90 19q18 14 22.5 3t-12.5 -25q-29 -23 -73 -34q-54 -10 -93 3q-26 9 -59.5 32t-54.5 45q-48 52 -66 130q-13 57 -3.5 127.5t38.5 131.5q53 111 122 164q73 59 145 57q44 0 93 -19z
M219 364q41 72 83 116q23 24 18 22q-1 0 -4 -3q-37 -28 -73 -83q-17 -26 -37.5 -67.5t-23.5 -55.5q-1 -5 4 3q1 4 7 15q11 25 26 53zM309 309q14 25 34 43q16 14 12 13q-1 0 -5 -2q-13 -7 -30.5 -27t-22.5 -35q-3 -9 -4 -13t0 -4q7 11 16 25zM448 285q11 41 9 45
q-5 9 -23.5 -1t-34.5 -31q-26 -35 -38.5 -75.5t-21.5 -123.5q-1 -8 -0.5 -12t1.5 -5t5 -1q7 0 26 17q16 15 23 28q4 8 8 12q6 6 15.5 31t13.5 44q5 27 17 72zM619 127q20 57 20 132q0 55 -23.5 131.5t-47.5 100.5q-11 11 -37 19t-52 4q-51 -9 -101 -54q-39 -37 -68 -86
l-13 -23l21 16q36 27 66 27q42 0 74 -28q15 -11 15 -8q8 16 16 31q11 20 18 25t16 1q8 -2 13 -2q4 1 22 -16q30 -35 26 -92q-2 -26 -14.5 -91t-22.5 -99q-23 -83 -23 -113q0 -11 24 10q8 7 16 16q32 35 55 99z" />
    <glyph glyph-name="A" unicode="A" horiz-adv-x="538" 
d="M538 -167q21 -15 19 -19q-6 -9 -45 6q-53 22 -78.5 61t-41.5 123q-7 33 -7 155v122l-25 2q-23 3 -73.5 1t-64.5 -7l-14 -4l-6 -33q-18 -102 -25.5 -211.5t4.5 -110.5q3 0 3 -4q0 -5 -15.5 -6t-31.5 4q-68 22 -103.5 74.5t-34.5 110.5t35 114.5t94 86.5l31 16l6 47
q13 94 59 188q63 126 143 126q45 0 74.5 -26.5t42 -63t16 -87.5t1.5 -87.5t-7 -74.5q-25 -203 -16 -317q6 -82 19.5 -124t40.5 -62zM142 168q7 60 7 69q0 12 -31 -27q-18 -22 -26 -38q-17 -34 -18 -78t14 -85q6 -16 20 -36.5t18 -20.5q2 0 6 78q2 69 10 138zM383 316
q2 0 3.5 1.5t2.5 8.5t2 18t3 30q4 59 9 96q3 32 1.5 85.5t-6.5 70.5q-3 11 -5.5 12.5t-9.5 0.5q-31 -7 -56 -40q-12 -17 -35.5 -63.5t-36.5 -81.5q-8 -22 -22.5 -70.5t-14.5 -55.5q0 -4 53 -2q48 1 79 -4q30 -6 33 -6zM408 -5q-2 138 3 232q2 50 -1 50t-5.5 -54t-2.5 -98
l1 -37zM423 391q6 81 5 92q-1 6 -3 -9q-1 -15 -5 -57q-7 -84 -9 -97q-3 -12 2 -12q4 0 4 4q0 1 1 11.5t2.5 30.5t2.5 37z" />
    <glyph glyph-name="B" unicode="B" horiz-adv-x="509" 
d="M325 189q13 0 37 -15.5t44 -36.5q75 -82 60 -171t-106 -147q-85 -55 -188 -39q-60 10 -106.5 63.5t-59.5 116.5q-5 25 -6 58.5t4 46.5q4 12 17 22.5t27 12.5q11 2 13 -0.5t-5 -9.5q-5 -5 -9 -33q-7 -47 10 -106t50 -101q33 -41 81.5 -43t91 24.5t68.5 67.5
q17 26 22.5 46.5t5.5 60.5q-1 83 -23 123q-13 24 -43.5 29t-53 6t-22.5 15q0 2 30 25q97 76 125 209q6 29 6 79.5t-6 78.5q-13 62 -26 62q-11 0 -33 -30.5t-43 -74.5q-40 -83 -71.5 -215t-38.5 -249q-4 -51 -11 -62q-8 -10 -10 -22q-6 -20 -28 -10q-13 5 -17 29t-6 103
q-1 74 2 216.5t8 201.5q12 137 42 138q25 2 29 -16q3 -11 1 -76q-2 -67 1 -67q2 0 13 28q21 60 57 103q28 34 72 37t71 -28q17 -19 23 -43.5t8 -78.5q3 -134 -43 -224q-28 -53 -61 -85q-16 -18 -3 -19zM389 -69q9 20 9 33l-1 13l-3 -16q-4 -18 -9 -30q-7 -16 -5.5 -16
t9.5 16z" />
    <glyph glyph-name="C" unicode="C" horiz-adv-x="456" 
d="M243 686q40 7 82 -14.5t60 -59.5q17 -34 2 -114q-10 -49 -33.5 -113t-32.5 -65q-7 -2 -7 5q0 6 -4 6q-2 0 -2.5 3t1 12.5t5 25.5t10.5 43q32 134 17 193q-4 13 -15 24.5t-19 11.5q-9 0 -33 -12.5t-37 -24.5q-46 -42 -85 -136t-48 -186q-8 -80 1 -171.5t29 -127.5
q12 -24 32 -25.5t59 18.5q87 43 116 152q8 30 13.5 40t13.5 9q16 -1 18.5 -28t-8.5 -61q-24 -69 -69 -117.5t-108 -50.5h-9t-10 0.5l-10 1t-9 1t-7.5 0.5h-5.5l-1 1q-56 16 -91.5 65t-46.5 113t-10.5 125.5t11.5 113.5q19 86 52 158q14 30 43.5 74t48.5 62q38 40 87 48z
M42 361q2 4 -1 7q-1 -3 -2 -5q0 -7 3 -2zM156 608l12 17l-9 -9q-36 -39 -71 -111q-33 -69 -43 -123l13 34q12 38 32 82q26 54 66 110z" />
    <glyph glyph-name="D" unicode="D" horiz-adv-x="531" 
d="M317 647q38 19 77.5 4t59.5 -55q31 -61 26 -212q-3 -89 -23 -202q-9 -48 -17.5 -84t-24.5 -87t-38 -85.5t-52 -65t-73 -41t-94 -0.5q-56 10 -98 52.5t-54 97.5q-5 22 -6 58.5t3 42.5q4 5 15.5 6t20.5 -4q9 -4 11 -13t7 -54q6 -59 36 -107.5t83 -48.5q29 0 54.5 9.5
t44.5 22.5t36.5 37.5t29 44t23 54t17.5 54.5t13.5 57.5t10 52t8.5 48.5q19 113 12 222q-6 78 -20 121q-6 19 -8 21.5t-9 -1.5q-21 -14 -53 -77q-23 -45 -61.5 -149t-58.5 -173q-11 -36 -30.5 -117.5t-19.5 -89.5q0 -7 -10.5 -18.5t-16.5 -11.5q-19 0 -31 29q-7 18 -18 85
q-10 62 -10 165q1 120 14 248t28 159q5 11 21 15.5t32 -3t19 -28.5q3 -17 -5 -101q-8 -72 -8 -93q0 -6 6 5q5 11 13 33q28 79 55.5 119.5t62.5 57.5zM134 609q4 22 2 23q-1 1 -4 -10q-13 -64 -25 -204.5t-11 -222.5q1 -16 2 3q2 16 4 62q4 101 11 172q12 128 21 177z
M287 590l12 18l-12 -11q-38 -38 -99 -225q-7 -22 -11 -35t-6 -22t-2 -11.5t1 -3.5q3 0 12 34q23 74 54 150t51 106z" />
    <glyph glyph-name="E" unicode="E" horiz-adv-x="440" 
d="M303 618q-23 13 -79.5 -13.5t-86.5 -63.5q-22 -28 -32.5 -67t-2.5 -60q11 -24 47 -21q48 6 60.5 6t23.5 -7q28 -18 18 -27q-2 -2 -28 -13q-72 -29 -110 -147q-13 -39 -15.5 -89.5t5.5 -88.5q12 -58 40 -100.5t58 -48.5q11 -2 30 9q30 19 45 48t28 91q3 18 7 116
q1 96 7 102h1q43 9 54 -33l3 -27q0 -126 -15 -195q-13 -66 -48 -106q-35 -37 -90 -40q-29 -2 -44 3q-41 14 -81.5 46t-59.5 66q-37 62 -37 151.5t35 163.5q12 26 30 52t28 33l9 6l-10 5q-12 6 -28 20.5t-22 23.5q-20 32 -7.5 83t50.5 93q22 23 62 43q63 32 119 24
q47 -7 73 -33q15 -16 27.5 -44t16.5 -55l4 -31q8 -43 -14 -46q-14 -1 -19 13l-1 5q-3 0 -8 37q-4 40 -17 74t-26 42zM27 146q2 9 0 16q-1 3 -1 -1q-1 -3 -1 -8l2 -8v1zM90 319l11 17l-13 -14q-19 -21 -39.5 -71t-20.5 -73q1 -5 5 6l3 11q9 34 15 47q15 42 39 77z" />
    <glyph glyph-name="F" unicode="F" horiz-adv-x="470" 
d="M277 718q37 16 95 -4.5t83 -59.5q25 -38 25 -84q0 -37 -10 -83.5t-18 -50.5q-5 -2 -13 6q-6 5 -7 13t-1 39q0 117 -37 161q-10 12 -23 14q-12 2 -30 -16q-28 -28 -44 -80.5t-27 -150.5q-8 -80 -8 -87v-15l49 -4q50 -4 70 -2q21 2 31 -6q24 -19 -1 -33q-13 -7 -56.5 -7
t-68.5 7q-25 6 -26 5q-9 -9 -9 -189q0 -23 -1.5 -44.5t-5 -47.5t-9.5 -47t-16 -43t-23.5 -35t-32 -24t-42.5 -9.5t-54 8.5q-18 5 -40 17t-25 18q-8 15 18 18.5t35 -1.5q14 -3 18.5 -2t11.5 8q8 8 18 41q9 33 12 144q3 161 21.5 302t44.5 209q16 39 42 70.5t54 44.5zM165 345
q7 58 5 63q-3 7 -19 -163q-3 -42 -7 -157q-3 -110 -13 -142t-10 -34q0 -8 8 8q6 12 11 26q8 26 10 132q3 145 15 267zM248 663l7 13q-1 0 -4 -3q-12 -10 -26 -35t-21 -47q-27 -86 -31 -149v-20q0 3 2 11.5t4.5 23t4.5 26.5q23 119 64 180z" />
    <glyph glyph-name="G" unicode="G" horiz-adv-x="395" 
d="M180 514q-37 -111 -58 -254q-4 -30 -8.5 -132.5t-2.5 -137.5q8 -128 32 -141q15 -8 51 28q33 33 63 136q42 141 9 132q-10 -2 -27 -21q-14 -15 -31.5 -19t-30 0t-19.5 11q-9 9 7.5 30.5t36.5 26.5q67 19 107 -10q31 -20 30 -61q0 -25 -10.5 -75t-20.5 -77
q-18 -45 -45.5 -81t-53.5 -48q-16 -7 -45 -9t-42 3q-43 17 -70 44q-32 32 -42 80q-10 40 -9.5 133.5t10.5 177.5q15 122 46 235q21 74 53 125.5t61 59.5q34 10 72.5 -16t70.5 -79q42 -71 24 -138q-4 -13 -13.5 -25.5t-16.5 -11.5q-11 0 -14.5 9.5t-3.5 40.5q-1 61 -23 104
q-33 60 -40 60q-6 0 -20 -29t-27 -71zM59 363q19 96 39.5 155t52.5 111l8 13l-12 -13q-29 -32 -53 -104q-12 -34 -31 -121t-25 -134q-4 -2 -10.5 -140t-1.5 -139q4 -4 3 0q-3 1 3.5 139.5t9.5 140.5q1 8 17 92v0z" />
    <glyph glyph-name="H" unicode="H" horiz-adv-x="585" 
d="M509 264q13 3 20 -6q6 -6 5.5 -9.5t-8.5 -18.5q-10 -18 -20 -28q-7 -6 -8.5 -15t-3.5 -54q-5 -187 -37 -251q-15 -31 -46.5 -41t-57 -2t-28.5 23q0 8 13 18q29 29 42 92q12 64 14 176v36l-26 3q-25 2 -72 13q-42 12 -64 14l-17 3l-2 -143q-2 -143 -10 -175
q-17 -64 -35 -73q-21 -11 -46 -12.5t-39.5 12t-1.5 42.5q16 33 21.5 68t8.5 112q2 102 2 103q-2 10 -2 20q0 8 -1.5 9t-9.5 -4q-11 -6 -28.5 -25t-21.5 -31q-8 -22 -11 -26t-10 -4q-10 0 -18.5 10.5t-9.5 25.5q-4 28 20.5 61.5t62.5 51.5l26 13l2 25q1 8 2 30t1 28
q0 36 5 86q20 197 61 245q8 9 12 10.5t17 0.5q36 -3 41 -24q2 -12 -10 -83q-20 -122 -26 -256l-2 -56h11q13 0 59 -12q107 -24 112 -10q2 5 6 83q11 208 36 244q14 21 41.5 21.5t45.5 -18.5l8 -9l-10 -40q-16 -67 -24 -202l-2 -53zM135 -15l1 32q0 -4 -2 -19
q-7 -74 -25 -121q-9 -23 -8 -23q2 -1 9 14q23 42 25 117zM140 347q2 7 0 13q-1 -1 -2 -6l2 -8v1zM144 395q2 8 0 19q-1 -2 -2 -9l1 -12zM148 433q2 9 0 17q-1 -3 -2 -8l1 -11zM187 629q11 31 8 30q-1 -1 -8 -14q-11 -22 -25 -86t-13 -89q1 -3 2 1l5 30q2 9 13 70q8 29 18 58
zM407 -33q5 23 9.5 87t3.5 99v5l-1 14l-1 -10q-7 -117 -13.5 -165t-19.5 -82q-4 -11 -6.5 -17.5t-1.5 -6.5q2 0 13 24q12 29 17 52zM423 249q2 12 0 25q-1 6 -1 -1v-11v0l1 -14v1zM427 339q2 11 0 21q-1 -4 -2 -10l1 -13zM431 389q2 10 0 21q-1 -4 -2 -10l1 -13q1 0 1 2z
M456 542q9 19 6 19q-1 0 -4 -3q-7 -7 -11 -20q-4 -14 -9.5 -52.5t-5.5 -51.5l1 -10l1 8q0 1 1.5 10t3 19.5t3.5 19.5q6 39 14 61z" />
    <glyph glyph-name="I" unicode="I" horiz-adv-x="225" 
d="M106 607q11 10 28 7.5t28 -13.5q10 -11 11.5 -15.5t0.5 -16.5q-29 -218 -21 -487q4 -129 -2 -165q-18 -83 -64 -86q-7 0 -31 -3q-13 -2 -18.5 8.5t-3 24.5t9.5 23q24 32 24 72l-1 21l-3 -21q-6 -48 -37 -88q-14 -20 -17 -21q-2 0 -5 4q-6 7 -4.5 14t12.5 24q19 29 22 50
q4 28 4 210q1 181 6.5 249t25.5 135q15 52 35 74zM82 464q2 4 0 9q-2 1 -2 -5l1 -5zM119 589q6 12 4 12l-2 -2q-8 -7 -23 -53t-14 -61q0 -4 2 1q1 3 2 7q4 18 14 48q7 26 17 48z" />
    <glyph glyph-name="J" unicode="J" horiz-adv-x="503" 
d="M388 513q15 -75 31.5 -208.5t21.5 -222.5q6 -71 -19 -145q-35 -106 -95 -136q-55 -23 -110.5 -24t-106.5 28t-78 80q-20 37 -28 91.5t1 91.5q13 56 55.5 97t91.5 46q47 5 89 -16q13 -7 22.5 -15.5t7.5 -11.5q-2 -2 -36 -4q-32 -2 -51 -11.5t-39 -31.5q-19 -21 -29 -53
q-10 -33 -8 -71q3 -64 28 -114q9 -18 23 -33.5t22 -15.5q11 0 30.5 11t30.5 23q26 30 47.5 88.5t25.5 107.5q4 44 -7 185t-27 254q-18 122 -11 143q9 19 40.5 8.5t43.5 -34.5q19 -37 34 -107zM294 637q4 6 4 8q0 3 -4 1t-4 -9t4 0zM49 107q11 22 6 21q-12 -10 -22.5 -43.5
t-9.5 -60.5l1 -11l6 30q6 36 19 64zM346 48v29q0 -2 -2 -17q-11 -90 -54 -169q-10 -16 -9 -17q1 0 5 4q8 7 27 46q31 62 33 124z" />
    <glyph glyph-name="K" unicode="K" horiz-adv-x="569" 
d="M505 73q24 -12 24 -45q0 -57 -46.5 -96t-109.5 -48.5t-130.5 14.5t-105.5 80l-16 24l-5 -31q-9 -66 -25 -85q-5 -7 -22.5 -11.5t-33 -1.5t-13.5 17l1 11q-1 -1 -4 -5q-10 -14 -16.5 -6.5t2.5 22.5q10 18 14 29q6 18 25.5 184t29.5 284q4 47 16 122.5t18 93.5q5 12 8 14.5
t13 3.5q32 2 39 -38q10 -65 -23 -385q-4 -40 -6.5 -63.5t-1.5 -23.5q2 -2 23 13.5t34 29.5q38 40 69 100q31 64 59 239q10 55 21 86l12 37l13 1q29 0 41 -28q7 -19 4 -91.5t-14 -142.5q-16 -93 -55 -165.5t-95 -112.5q-19 -14 -47 -32q-16 -10 -17 -10q-2 -2 28.5 -36
t48.5 -50q46 -39 78.5 -43.5t62.5 24.5q19 19 30 56q28 88 72 65zM359 593q-1 -2 -2 -5q0 -6 3 -2q2 4 -1 7zM356 576q-1 1 -2 -4l1 -6l1 1q2 5 0 9zM352 557q-2 1 -2 -5l1 -5l1 1q2 4 0 9zM348 538q-1 -4 -2 -7l1 -6l1 2q2 7 0 11zM344 511q-1 -2 -2 -6l1 -7l1 2q2 7 0 11z
M340 485q-1 2 -1 -1q-1 -2 0 -6l1 -7v2q2 7 0 12v0zM336 458l-1 -7l1 -6l1 1q2 8 -1 12v0zM225 178q-7 -9 0 -2q2 1 5 4q9 8 30 37q51 76 68 179q7 36 5.5 36.5t-9.5 -34.5q-15 -76 -44 -133t-55 -87zM38 -74q7 15 14.5 62.5t5.5 60.5q0 2 -2 -2q-2 -9 -4 -34
q-5 -42 -16 -75q-3 -8 -5 -15.5t-3.5 -12t-0.5 -4.5q2 0 11 20zM65 102q2 7 0 14q-1 -4 -2 -7l2 -8v1zM69 135q2 8 0 15q-1 3 -1 0l-1 -9l2 -8v2zM73 169q2 9 0 16q-1 3 -1 -1l-1 -8l2 -9v2zM77 202q2 6 0 13q-1 -1 -2 -7l2 -7v1zM80 234q2 5 0 10q-1 -3 -2 -5l1 -6zM84 269
q2 5 0 7q-1 -3 -2 -5zM100 445q1 1 0.5 3.5t-1.5 3.5q-1 -3 -2 -5q0 -3 0.5 -3.5t2.5 1.5zM103 475q2 5 0 10q-1 -3 -2 -5l1 -6zM107 506q2 5 0 7q-1 -3 -2 -5z" />
    <glyph glyph-name="L" unicode="L" horiz-adv-x="347" 
d="M323 -18q6 -7 1 -26q-6 -28 -23.5 -53t-38.5 -35q-22 -12 -54.5 -16t-54.5 1q-25 6 -62 29t-53 43q-26 32 -33 76t-3 137q3 47 8 191q6 172 22 294q11 92 17 108t26 15q34 -2 46 -28q11 -24 5 -213q-5 -107 -9 -258q-1 -36 -2 -79.5t-2.5 -83.5t-1.5 -50q-2 -60 3 -83.5
t24 -43.5q12 -11 17.5 -13.5t18.5 -2.5q18 0 37 12q30 19 47 63q10 25 18 27q9 0 12 3q4 2 17 -3t18 -11zM23 51q9 -36 23 554q-7 1 -15 -134.5t-9.5 -259t1.5 -160.5zM23 51q-3 37 -1.5 160.5t9.5 259t15 134.5l-14 -454q-5 -114 -9 -100z" />
    <glyph glyph-name="M" unicode="M" horiz-adv-x="763" 
d="M699 640q14 -26 13.5 -86t-15.5 -219q-22 -244 -20 -363l2 -93q-8 -61 -69 -16q-23 17 -44 41q-16 18 -21 43.5t-4 88.5q0 78 7 132q17 163 27 239q11 68 8 71l-3 -3q-2 -3 -5.5 -9t-8 -14t-10.5 -18t-11.5 -21t-12 -23t-12.5 -23.5t-11.5 -23t-9.5 -20.5
q-11 -22 -62 -141q-50 -124 -65 -144q-7 -9 -11.5 -10.5t-22.5 -1.5q-36 1 -67 35q-18 21 -38 90t-35 161q-39 251 -46 269q-2 6 -9 -21q-12 -43 -23 -113q-28 -168 -41 -383q-3 -68 -6.5 -86t-12.5 -18q-7 0 -18.5 15.5t-16.5 30.5q-31 106 -24 223q13 235 48 368
q16 61 32 82t45 20q29 -2 54.5 -19.5t38.5 -44.5q35 -74 63 -326q15 -124 28 -171l4 -15l11 28q3 7 9.5 24.5t16 43t16.5 43.5q50 135 140 286q48 79 73 110.5t41 31.5q13 0 15 -4q3 -3 9 -2q8 3 26.5 -12t27.5 -32zM99 659q10 16 5 14q-2 0 -8 -9q-29 -40 -52 -201
q-7 -41 -14.5 -122t-6.5 -100l1 -11q1 4 5 48l3 34q24 272 67 347zM600 644q15 19 11 19q-9 0 -70 -98.5t-96 -170.5q-21 -42 -71 -168.5t-49 -135.5q0 -6 4 4q6 13 41 105q38 94 49 124q20 50 85.5 167t95.5 154z" />
    <glyph glyph-name="N" unicode="N" horiz-adv-x="576" 
d="M446 690q48 -32 64 -101q16 -75 16 -182q0 -95 -22 -262.5t-45 -246.5q-8 -26 -30 -35.5t-44.5 -1t-32.5 30.5q-18 36 -66 182.5t-76 248.5q-50 187 -64 201q-28 -50 -46 -248t2 -251q7 -18 -0.5 -22t-29.5 6q-24 11 -38.5 46.5t-26.5 112.5q-12 81 -1 195t40 209
q24 83 42 102q9 8 14.5 10t22.5 1q28 -2 34 -6q31 -12 45 -46q21 -50 82 -283q24 -90 51 -176q34 -107 36 -107t7 98q2 30 4.5 90t3.5 76q4 87 -6 254q-1 12 -1 25t1.5 30t6 29t11.5 22t18.5 9t27.5 -10zM103 653q1 5 -1 5q-13 -8 -43 -123q-21 -81 -31 -172t-5 -156
q2 -37 4 -37q1 0 1 5.5t-0.5 15.5t-1.5 20q-3 52 7.5 144t27.5 162q20 76 42 136zM415 671q-3 -7 -3 -31v-21l3 19q3 16 3 31v0l-1 8q0 -1 -2 -6v0zM413 149q18 238 10 302l-3 15q0 -5 -1 -55v-4q0 -70 -4 -118q-19 -209 -19 -286v-14l4 13q4 13 13 147v0z" />
    <glyph glyph-name="O" unicode="O" horiz-adv-x="427" 
d="M212 695q80 -38 130 -143q29 -63 38.5 -122t3.5 -148q-4 -81 -14 -126t-32 -89q-28 -57 -74.5 -85t-98.5 -20t-95 54q-39 43 -54.5 79.5t-15.5 88.5q1 100 56 166q19 23 11 23q-2 1 -6 0q-10 -1 -16 16t-7.5 31.5t-1.5 24.5q3 197 95 252q36 20 81 -2zM109 654
q-8 -10 -7 -10q3 0 11 10q9 9 7 9t-11 -9zM107 353q10 12 6 12t-19 -15q-29 -29 -43 -72q-8 -24 -7 -25l9 16q6 11 27 46q1 2 27 38zM266 78q10 13 24 36t14 27l-15 -20q-3 -3 -5 -7q-17 -26 -39 -53q-1 -1 -3 -4l-10 -12q1 0 7 4q12 10 27 29zM262 115q34 50 47.5 107.5
t13.5 153.5q0 171 -70 244q-22 23 -43 26.5t-37 -8t-30 -32.5t-23 -44t-15 -46q-7 -26 -14 -78.5t-4 -55.5q2 -2 13 4q33 17 88 -13q25 -12 32 -31q5 -11 -6 -11t-31.5 -38.5t-32.5 -80.5q-13 -43 -16.5 -96t4.5 -73q3 -7 17.5 -6t32.5 9q37 17 74 69z" />
    <glyph glyph-name="P" unicode="P" horiz-adv-x="509" 
d="M206 657q97 90 176 10q77 -77 77 -254q0 -59 -6.5 -100t-25.5 -103q-22 -71 -52 -108t-77 -49q-29 -7 -74.5 -2t-67.5 19q-17 11 -18 6q-1 -4 5 -45q8 -51 5.5 -100.5t-13.5 -71.5q-9 -20 -35.5 -28t-50.5 -3t-28 18l-2 1q-1 0 -2 -1q-7 -2 -12 5t-5 19t5 25q26 59 4 228
q-7 50 -7 127.5t7 116.5q25 150 77 252q14 30 25 42q19 19 39 7.5t27 -32.5q2 -5 29 21zM48 -70l2 32l-6 -27q-5 -25 -13 -47q-10 -25 -8 -28q1 -1 5 6q4 5 8 14q9 16 12 50zM86 543q9 27 8 28q-1 0 -5.5 -11t-8 -24t-3.5 -16zM100 583q4 10 18 38q11 24 15 33q1 2 -4 -1
q-5 -4 -16.5 -30t-14.5 -40l-3 -10zM332 237q10 26 11 31q2 9 -16 -29q-29 -58 -61 -91q-20 -21 -13 -19q5 1 24 18q31 29 55 90zM353 531q1 72 -2 95.5t-14 26.5q-7 3 -29.5 -3t-38.5 -15q-25 -15 -55.5 -50.5t-40.5 -60.5q-15 -39 -34 -137q-20 -111 -11 -213l3 -33l15 -8
q16 -7 25 -7.5t25 4.5q36 13 74 70t60 131q14 48 18.5 87t4.5 113z" />
    <glyph glyph-name="Q" unicode="Q" horiz-adv-x="470" 
d="M583 -48q12 14 16 5q1 -2 1 -4q0 -17 -29 -32t-64 -17q-22 -1 -31 0.5t-29 10.5q-53 24 -112 79l-30 28l-17 -16q-50 -45 -136 -41q-38 1 -57 11q-20 9 -45 34t-34 42q-37 82 7 187q22 51 50.5 89.5t54.5 50.5q23 11 52.5 8t47.5 -19q26 -22 -3 -22q-15 0 -31 -15
l-16 -15l7 -13q16 -28 26 -47q19 -35 50.5 -81.5t35.5 -46.5t19.5 31t23.5 57q21 66 21 157q0 96 -25 155q-15 36 -38 65.5t-39 33.5t-38 -13t-42 -50q-17 -30 -24 -53.5t-9 -64.5l-3 -48l-11 1q-12 2 -26.5 16.5t-17.5 28.5q-3 15 0 49.5t10 52.5q5 17 22 48
q24 43 47.5 60.5t55.5 15.5q66 -6 126 -84q77 -101 64 -256q-11 -133 -55 -222q-18 -35 -14 -40q5 -11 48.5 -47t68.5 -50q42 -26 87 -26q28 0 35 7zM66 260q27 51 35 64l18 28l-16 -17q-14 -16 -35 -56.5t-29 -67.5q-12 -36 -8 -35q3 0 9 20q8 24 26 64v0zM246 59l3 3
q8 5 5 13t-22 37q-8 10 -12 17q-25 35 -49 83q-19 39 -22 39q-2 0 -3 -4q-30 -81 -35 -106q-5 -23 -7.5 -40.5t-3 -35.5t4 -27.5t14 -18t26 -6.5t39.5 7q36 10 62 39z" />
    <glyph glyph-name="R" unicode="R" horiz-adv-x="533" 
d="M467 -16q-2 25 13 19q19 -7 42 -42q6 -10 8 -16q8 -36 -8 -71q-24 -51 -74.5 -66t-101.5 2.5t-85 54.5q-37 40 -62 95.5t-30 108.5q-1 21 -4 39l-2 13l20 -3q22 -3 40 6q36 17 64 51t61 103q37 76 49 152t-3 131q-10 33 -27 39t-51 -12q-46 -24 -92.5 -87.5t-69.5 -133.5
q-32 -102 -12 -308q13 -137 -27 -190q-19 -19 -46 -19.5t-49.5 15.5t-18.5 36q2 13 13 36q25 50 21 145q-7 216 -2 261q9 93 39 190q16 51 43 94.5t43 43.5q5 0 7.5 -1t2 -3.5t-3 -6.5t-7.5 -11q-14 -18 -23 -37l-5 -13l1 1q1 1 21 33q14 22 22.5 25.5t18.5 -7.5
q16 -16 16.5 -30.5t-12.5 -60.5q-13 -48 -12 -49q8 11 17 24q33 52 86 86q28 18 44 19.5t41 -11.5q27 -14 44 -36t31 -62q31 -86 7 -220q-14 -79 -55 -157q-34 -68 -77 -90q-19 -10 -51 -10h-16.5t-9 -1t-3.5 -2v-3q0 -1 3 -8.5t7.5 -20.5t8.5 -24q16 -45 33 -78
q14 -28 25.5 -35t37.5 -4q74 6 103 64q9 20 7 42zM42 -79q11 24 10 27q-1 2 -5 -4q-3 -5 -8 -15q-6 -10 -8.5 -15.5t-4 -9t-0.5 -4.5t3 -1q4 0 13 22zM264 121v0l-8 -7q1 0 14 7q14 7 34 28q7 8 19 26.5t20 33.5t6 15q-1 0 -16 -25q-30 -49 -69 -78zM471 -85q6 11 4 13
q-2 4 -2 -1t-18 -25l-13 -16q1 1 9 7q14 11 20 22z" />
    <glyph glyph-name="S" unicode="S" horiz-adv-x="502" 
d="M430 694q51 -25 81.5 -69t30.5 -93q0 -34 -13 -73t-30 -55q-11 -9 -25 -11q-10 -1 -13 0t-7 8q-6 12 9 66q13 47 13 92t-13 65q-7 11 -25 18t-35 5q-49 -6 -77.5 -66t-20.5 -140q3 -30 11.5 -56t35.5 -94q109 -275 96 -357q-15 -100 -104 -125q-85 -24 -183 29
q-102 53 -141 152q-19 48 -19 100q0 50 9 72q16 43 53 60q22 11 53 10q106 0 151 -104q13 -28 13 -67q0 -27 -2 -35.5t-11 -26.5q-14 -25 -26 -30.5t-40 -1.5q-28 5 -37 14q-8 10 -8 11q0 2 -8 10q-9 9 -6.5 12t19.5 3q20 0 30 12q18 21 21 53t-11 59q-9 19 -15.5 22.5
t-22.5 -0.5q-58 -18 -64 -107q-5 -91 48 -150q9 -10 14.5 -12.5t19.5 -2.5q41 0 83 26t56 60q20 45 6 122q-17 98 -64 241q-26 80 -32 111.5t-4 74.5q4 100 53 150q33 34 67 38t84 -20zM214 23q1 4 -1 4q-4 -4 -4 -6q0 -8 4 -1q0 1 1 3zM54 178q11 16 10 18.5t-13 -10.5
q-8 -9 -15 -23t-6 -22q0 -6 4 3q0 1 1 3q12 21 19 31zM352 -38q1 6 0 5q-2 -1 -11 -15q-18 -25 -28 -36q-12 -12 -9 -12q1 0 5 2q7 4 20 15q17 16 23 41zM310 672l16 15l-14 -7q-10 -6 -26 -25t-16 -24q0 -4 13 11q6 9 27 30z" />
    <glyph glyph-name="T" unicode="T" horiz-adv-x="402" 
d="M385 738q87 38 177.5 18.5t135.5 -85.5q29 -44 32.5 -83t-20.5 -63q-22 -21 -59 -20t-121 25q-105 29 -152 36l-19 3l-8 -29q-17 -54 -27 -135q-6 -48 -6 -313q2 -262 -1 -269q-1 -5 -5 -7.5t-9.5 -2t-11.5 2.5t-13.5 6.5t-14.5 8.5t-14 9t-11.5 8.5t-9.5 7.5l-5 4
q-11 8 -13 32t0 108q10 415 40 533q10 37 5 38h-5q-41 0 -99 -29t-84 -63q-10 -12 -18.5 -32t-6.5 -25q-4 -2 -8 -3q-11 1 -22 18q-12 18 -12 42q0 52 54 102t110 65q23 5 63.5 9t51.5 2q9 -1 13 2t17 21q25 35 76 58zM110 596q17 12 16.5 13.5t-18.5 -9.5q-36 -23 -58 -51
l-3 -5q3 2 17 15q34 29 46 37zM394 714q21 10 21 12l-30 -12q-38 -16 -52 -40q-5 -8 -3.5 -8t14.5 13l1 1q17 17 49 34zM613 610q22 9 34 32q6 12 -1 16q-26 20 -95 22q-38 0 -81 -14q-44 -15 -52 -21q-6 -5 2 -8t60 -15q102 -23 133 -12zM651 596q11 10 8 11t-16 -9
q-14 -11 -9 -11q6 0 17 9z" />
    <glyph glyph-name="U" unicode="U" horiz-adv-x="547" 
d="M472 649q16 -16 20 -48.5t5 -159.5q0 -147 -4 -185q-5 -48 -8 -105q-10 -168 -20 -185q-5 -9 -20.5 -15.5t-27.5 -6.5q-22 0 -35.5 12t-17 29.5t-5.5 37.5t0 36q1 86 -2 87q-1 0 -8 -18q-24 -70 -52 -97t-81 -31q-32 -2 -52 3.5t-52 27.5q-56 37 -81 98.5t-30 172.5
q-5 121 14 221q11 51 28 91t32 47q13 7 33 4.5t34 -12.5l16 -11l1 -28q1 -25 -6 -75q-15 -88 -15.5 -217t13.5 -202q5 -22 14.5 -45t14.5 -23q17 0 52 35q32 36 68.5 132.5t59.5 208.5q19 89 27 169q5 48 12 62q8 12 34.5 7t38.5 -17zM383 11l0.5 -11.5t1.5 -10.5q4 24 5 25
v14q2 42 -1 44l-3 -24q-2 -30 -3 -37zM84 627q7 19 6 20q-2 2 -8 -9q-11 -18 -21 -50q-22 -66 -25 -160l-2 -57l4 44q4 45 9 83q13 73 37 129zM283 126q5 10 8 16.5t2 6.5l-3 -3q-2 -4 -6 -11.5t-8 -15.5l-11 -24l1 1q8 11 17 30zM394 266v38q-1 -1 -1 -2q-6 -28 -3 -82
l1 -7q1 0 3 53z" />
    <glyph glyph-name="V" unicode="V" horiz-adv-x="548" 
d="M491 710q17 6 32 -9q19 -17 14 -64q-4 -39 -18 -128.5t-21 -120.5q-23 -104 -60 -214q-23 -64 -53 -113.5t-58 -68.5q-45 -31 -103 -3.5t-104 75.5q-42 44 -65 83t-37 92q-26 96 -10 214q9 69 36.5 128.5t60.5 82.5q21 14 55 9q16 -3 35 -20t19 -29q0 -8 -15 -64
q-27 -93 -35.5 -156.5t-5.5 -137.5q3 -76 25 -144t48 -82q19 -10 48.5 17.5t54.5 79.5q61 123 113 412q29 156 44 161zM120 629q18 25 16 25q-1 0 -5 -2q-22 -11 -47 -63.5t-32 -101.5q-2 -11 2 -2q3 7 9 24q14 41 29 70q17 35 28 50zM354 130q24 50 24 53q0 2 -5 -7
t-13 -27q-21 -43 -32 -59l-16 -28q1 0 7 7q9 11 35 61z" />
    <glyph glyph-name="W" unicode="W" horiz-adv-x="781" 
d="M689 630q23 -50 32.5 -106.5t9.5 -152.5q0 -99 -18 -181q-13 -62 -39.5 -122t-53.5 -87q-27 -28 -64 -32t-70.5 10t-61.5 41q-36 35 -51 65l-16 32l-22 -34q-23 -36 -39 -52.5t-38 -26.5q-26 -11 -58 -10q-54 1 -82.5 12t-61.5 43q-35 35 -47 69t-8 89q3 59 24 152.5
t45 153.5q26 66 56 118t53 69q11 7 31 4q21 -3 36 -18q16 -14 16.5 -26.5t-15.5 -51.5q-89 -235 -116 -426q-4 -34 -5 -72.5t3 -45.5q7 -13 40 -6.5t62 25.5q48 30 92 116q25 51 30 82q14 83 41 115q15 16 53 -1.5t44 -42.5q1 -2 0.5 -25t-1.5 -47q-8 -159 0 -210
q4 -19 8 -20q6 -2 23 12t33 36q60 80 86 209q8 37 7.5 123t-8.5 156q-17 121 9 114q12 -3 19 -11.5t22 -38.5zM55 319q3 3 0 7q-1 -3 -2 -5q0 -4 1 -4zM59 334q2 5 0 7q-1 -3 -2 -5zM66 365q9 27 18 57q46 139 97 216q16 27 16 28q-1 1 -8.5 -7.5t-17.5 -22.5t-18 -28
q-25 -43 -55 -125.5t-35 -124.5q-1 -6 -0.5 -5.5t3.5 12.5zM639 186q8 25 9 32q1 3 0 2l-12 -29q-34 -91 -82 -151l-13 -17l16 15q17 16 34 41q29 44 48 107zM652 231q1 1 0.5 3.5t-1.5 3.5q-1 -3 -2 -5q1 -7 3 -2zM656 246q2 6 -1 7q-1 -3 -2 -5q0 -6 3 -2z" />
    <glyph glyph-name="X" unicode="X" horiz-adv-x="459" 
d="M408 78q45 -70 54 -89q56 -111 44 -157q-9 -36 -54 2q-37 32 -87 109q-84 129 -146 248q-36 72 -40 74q-2 1 -34 -61t-65 -131.5t-39 -87.5q-16 -44 -29 -42t-11 39q1 10 3 19q31 109 107 264q24 51 28.5 63t2.5 22q-5 17 -45 106q-33 77 -42.5 106t-5.5 45q5 20 17 30.5
t20 0.5q29 -39 87 -147q22 -40 25 -43l2 4q3 3 7 10t9 16t11.5 21t12.5 24q66 125 108 166q29 29 41 20q7 -6 -2 -29q-16 -40 -80 -166l-72 -140l38 -69q60 -110 135 -227z" />
    <glyph glyph-name="Y" unicode="Y" horiz-adv-x="521" 
d="M345 647q14 22 40.5 15t41.5 -26q26 -37 23 -402q-1 -165 -7.5 -223t-28.5 -116q-17 -44 -49 -83t-63 -55q-50 -27 -119 -20t-107 51q-13 16 -16.5 39t6.5 33t17.5 10t13.5 -7.5t10 -16.5t9 -20t9 -15q48 -59 110 4q15 16 35.5 58t28.5 73q5 21 10.5 58t3.5 39
q-7 -8 -15 -18q-32 -43 -72 -55q-21 -7 -51.5 -6.5t-45.5 7.5q-49 23 -74 53q-34 44 -48 110q-7 30 -7 92.5t7 113.5q12 96 37.5 194.5t43.5 117.5q9 11 17 7q3 -2 1 -6q-18 -46 -36 -118q-15 -61 -28 -148.5t-9 -98.5q1 3 2 8q2 55 34 201.5t45 156.5q7 11 19.5 12.5
t23 -9.5t10.5 -32l-3 -31q-1 -13 -12 -112q-2 -19 -15 -126q-25 -227 -3 -305q8 -27 14.5 -36.5t16.5 -6.5q30 7 62 40q39 38 61 106q21 68 25 186q6 248 32 307zM299 -140q48 80 46 165l-1 25l-3 -25q-14 -103 -52 -172q-10 -19 -9 -21l7 8q5 8 12 20zM371 640q1 7 -2 7
q-4 -4 -6 -19q-3 -13 -5 -28v-9q2 1 6 21q1 5 3.5 15t3.5 13z" />
    <glyph glyph-name="Z" unicode="Z" horiz-adv-x="481" 
d="M448 662q50 -20 65 -50q9 -19 4 -21q-7 -2 -39 -34t-51 -56q-37 -49 -88 -145q-82 -159 -118 -220t-67 -93q-18 -17 -13 -22t49.5 -10t60.5 -3q20 2 38 11q18 8 51.5 29.5t47.5 34.5q15 13 25 11t17 -13q26 -34 -4.5 -84t-77.5 -60q-35 -6 -103 0q-56 7 -142.5 39
t-99.5 69q-3 8 -2 11t9 8q57 39 140 188q102 180 141.5 242t77.5 103l26 27l-20 5q-36 8 -84.5 2t-83.5 -22q-36 -17 -60 -44.5t-33 -53.5t-15 -48.5t-11 -32t-15 -2.5q-43 32 -43 94q0 73 70.5 123.5t150.5 58.5q79 6 197 -42zM99 612l21 26l-22 -23q-36 -36 -45 -70v-1
q3 4 11 17q17 31 35 51zM360 38q-11 -11 -11 -13t11 9q12 12 12 13t-1.5 0t-4.5 -3.5t-6 -5.5zM398 584q28 28 23 30q-7 0 -38 -34.5t-53 -65.5q-16 -25 -155 -268q-56 -100 -103 -156q-21 -26 -19 -26q1 0 4 2q8 6 32 32q39 46 83 126q127 228 154 271t72 89z" />
    <glyph glyph-name="bracketleft" unicode="[" horiz-adv-x="400" 
d="M395 -39q36 18 46 -16q2 -8 -16 -29q-29 -34 -52.5 -41t-83.5 0q-30 4 -45.5 12.5t-39.5 34.5q-25 26 -34 47.5t-18 77.5q-6 40 -6.5 63.5t2.5 108.5q5 113 9 241q6 194 23 229q6 11 13 17t29 16q81 42 149 22q16 -5 33 -19.5t15 -20.5q-2 -5 -32 -16q-90 -29 -105 -75
q-5 -15 -6 -176q0 -139 -5 -222q-9 -146 2 -229q3 -41 7 -45t85 10q17 3 30 10zM225 690q8 9 5 10t-13 -8q-11 -9 -13 -20l-3 -12l7 10q12 15 17 20z" />
    <glyph glyph-name="backslash" unicode="\" 
d="M245 340q9 -43 71 -255q15 -52 17.5 -67.5t-2.5 -25.5q-5 -7 -18 -5q-15 3 -22 -3q-8 -6 -14 -5t-28 14q-26 15 -36 28q-12 18 -51 147t-53 198q-19 94 -37.5 217.5t-14.5 133.5q2 6 11.5 6t11.5 -6q3 -6 8 0q3 5 6 5t14 -6q32 -15 49 -51q26 -48 88 -325z" />
    <glyph glyph-name="bracketright" unicode="]" horiz-adv-x="322" 
d="M36 661q-36 -18 -46 16q-2 7 15 29q30 34 53.5 40.5t83.5 -0.5q30 -3 45.5 -11.5t39.5 -34.5q25 -26 34 -47.5t18 -78.5q6 -40 6.5 -63t-2.5 -108q-5 -111 -9 -242q-5 -193 -23 -228q-6 -12 -13.5 -18t-28.5 -16q-83 -42 -149 -21q-16 4 -33 18.5t-15 21.5q0 4 32 15
q91 31 105 75q5 15 6 177q0 141 5 221q9 138 -2 229q-3 38 -7 46q-4 4 -85 -11q-20 -4 -30 -9zM206 -68q-8 -10 -5.5 -10.5t13.5 8.5t13 20l2 11l-6 -9q-12 -15 -17 -20z" />
    <glyph glyph-name="asciicircum" unicode="^" horiz-adv-x="267" 
d="M315 647q2 -27 11 -79q13 -74 10 -77q-1 -1 -10 -1q-13 0 -32 22q-17 19 -28 38q-7 16 -9 16t-14 -23q-13 -24 -33 -46q-50 -53 -77 -24l-9 10l9 16q15 27 51 99q36 68 53.5 95t25.5 24q6 -2 11 -2q8 -1 18 -9t14 -18q5 -13 9 -41zM209 600q5 10 9.5 19.5t7 14.5t1.5 5
q-2 0 -21 -38t-19 -41t2.5 1t19.5 39z" />
    <glyph glyph-name="underscore" unicode="_" horiz-adv-x="292" 
d="M255 -24q80 -10 80 -27t-130 -17q-137 0 -160 -10q-7 -2 -16 7q-17 17 3 27q28 17 91 22.5t132 -2.5z" />
    <glyph glyph-name="grave" unicode="`" horiz-adv-x="234" 
d="M205 501q-8 -2 -14 1t-20 18q-22 22 -35 51q-13 27 -25 65t-12 50q0 7 1.5 9t7.5 2q10 0 10 -4t9 -2q10 3 25 -13t26 -42q12 -24 34 -74q31 -66 21 -66q-3 0 -9 3q-8 4 -19 2z" />
    <glyph glyph-name="a" unicode="a" horiz-adv-x="479" 
d="M573 253q7 -6 3 -22q-6 -23 -47.5 -92.5t-88.5 -134.5q-38 -53 -52 -67.5t-30 -17.5q-21 -4 -33 -2t-30 14q-38 23 -48 72l-5 23l-21 -13q-22 -14 -52 -16q-27 -2 -44 4t-42 25q-90 66 -82 173q5 71 50.5 125t105 77t122.5 19t102 -39q7 -7 6.5 -18.5t-9.5 -74.5
q-26 -168 -29 -250q10 -64 41 -22q5 6 48 81q4 6 7 11q28 44 34 52q11 16 32 50q22 36 25 40q6 7 17.5 8t19.5 -5zM75 319l13 19l-13 -13q-31 -30 -43 -81q-7 -30 -5 -34l5 10q1 4 3 11q7 25 17 49q9 20 23 39zM245 116l5 41q7 49 23 111.5t29 88.5l8 15l-30 -2
q-45 -4 -84 -32q-59 -42 -82 -130q-27 -104 10 -159q15 -23 44 -7q14 10 45 41zM274 119q2 7 0 14q-1 -4 -2 -7l2 -8v1zM330 365q0 4 -1 4q-8 -5 -28.5 -84.5t-23.5 -118.5v-17q11 58 15 76q19 90 38 140z" />
    <glyph glyph-name="b" unicode="b" horiz-adv-x="473" 
d="M561 256q13 -3 11 -13.5t-21 -38.5q-50 -75 -132.5 -169t-127.5 -120q-25 -15 -57 -21q-13 -4 -29 -5q-51 -5 -69 13q-28 18 -31 54q-24 -15 -48 -13t-41.5 13.5t-14.5 21.5q1 7 9 26q5 11 6 38.5t1 146.5q1 143 5.5 188.5t26.5 117.5q42 134 93 194q21 25 45.5 28
t45.5 -16q7 -6 9.5 -12.5t2 -10t-4 -12.5t-4.5 -13q-7 -28 -33 -118q-50 -182 -50 -229q0 -7 3 -3q2 2 8 11q15 24 40.5 40.5t47.5 16.5q28 0 56 -20t42 -50q17 -38 22 -68.5t4 -89.5q0 -75 -6 -97l-6 -24l15 15q13 12 55 68t69 95q23 36 35 47.5t23 8.5zM39 -6l11 23l-1 71
l-1 71l-2 -67q-3 -68 -11 -91q-7 -21 -7 -25q-1 -3 4 6q3 4 7 12zM52 343q2 5 0 8q-1 -3 -2 -5q1 -3 2 -3zM83 477q36 122 84 200l13 21l-15 -17q-30 -32 -66 -131t-43 -166v-12q1 2 5 24q7 33 22 81zM200 -18q34 58 62 178q28 122 15 171q-6 21 -38 -4q-26 -20 -43 -53
q-38 -75 -50 -221q-11 -122 16 -116q15 6 38 45zM269 44q10 29 22 90.5t11 83.5q-1 6 -3 -4q-1 -5 -3 -14q-20 -130 -62 -215l-9 -21q1 1 6 7q9 9 19 29q5 9 19 44z" />
    <glyph glyph-name="c" unicode="c" 
d="M441 257q21 -7 12 -31q-7 -20 -32.5 -49.5t-98.5 -104.5q-36 -36 -76 -62t-82 -35.5t-76.5 2t-58.5 57.5t-28 124q-3 52 14 115.5t46 106.5q23 33 41 48t44 21q35 8 69 -12.5t51 -58.5q13 -29 8 -72t-22 -53q-5 -2 -9.5 2.5t-6.5 14t-1 21.5q3 24 -5.5 64t-16.5 40
q-30 0 -63 -92q-38 -109 -31 -193q5 -70 45 -67q12 0 25 7q56 28 146 105q62 54 81 88q12 20 25 14zM116 406q8 10 7 10q0 1 -4 -1q-14 -8 -33 -37.5t-29 -61.5q-7 -19 -7 -24q-1 -3 2.5 3.5t9.5 19.5q14 32 27 53q15 26 27 38z" />
    <glyph glyph-name="d" unicode="d" horiz-adv-x="458" 
d="M552 258q7 -5 5 -31q-2 -23 -10.5 -42t-40.5 -73q-110 -191 -205 -212q-29 -6 -71.5 3.5t-42.5 39.5q0 10 4 20q5 13 0 13q-2 0 -7 -5q-10 -8 -25 -12q-68 -23 -115.5 38.5t-42.5 136.5q6 68 43 143q25 52 42 64q32 25 64 20q46 -9 57 -24q10 -9 11 13q0 22 5 57
q31 216 111 266q15 9 34 6.5t33 -15.5q12 -10 12 -14q0 -3 -12 -24q-17 -32 -35 -109.5t-26 -151.5q-4 -40 -6 -209q0 -26 -1 -56t-2.5 -48.5t-1.5 -37.5t1.5 -27t6.5 -11.5t13 3.5t22 23.5t32.5 42.5t44.5 65q57 88 61 100q5 14 17 33.5t15 19.5t10 -5zM79 295l10 25
q-8 -7 -29 -55.5t-24 -66.5q-1 -4 2 0l11 27q20 48 30 70zM144 11q42 21 61 59q6 11 6 121l1 111l-11 11q-13 11 -19.5 12.5t-16.5 -6.5q-22 -19 -47 -117q-11 -46 -13.5 -63.5t-2.5 -62.5q-2 -62 2 -70q5 -12 40 5zM239 14v12q-3 -2 -16 -42q-2 -6 -12 -37q-2 -5 2 -5
q3 0 14 27q12 30 12 45zM262 458q4 4 0 7q-1 -3 -2 -5q0 -4 1 -4zM266 473q2 5 0 9q-2 1 -2 -5l1 -5zM282 531q12 37 24 65q7 13 24 42l15 21l-14 -13q-28 -26 -49 -98q-15 -48 -12 -46q2 1 12 29z" />
    <glyph glyph-name="e" unicode="e" horiz-adv-x="386" 
d="M466 259q3 1 12 -6q8 -8 7 -28q-2 -25 -38.5 -83.5t-77.5 -105.5q-49 -53 -99 -78q-55 -25 -109 -10.5t-97 57.5t-57 96q-8 33 -6.5 84.5t12.5 90.5q21 77 61.5 124.5t84.5 47.5q33 0 68.5 -18t57.5 -46q24 -31 17 -77q-12 -72 -50 -112.5t-94 -40.5h-25l1 -64
q1 -35 9 -56t23 -26t32 -2.5t40 15.5t42 27t43 34q36 30 44 40q9 10 38 50.5t43 62.5q15 23 18 24zM140 198q-3 -13 0 -13q2 -1 8 1q14 5 28 14q57 36 68 116q8 53 -9 67q-13 10 -43 -33q-35 -52 -52 -152zM116 397q18 20 14 20t-24 -20q-34 -34 -55 -104q-11 -39 -8 -36
l12 29q15 40 27 63q19 31 34 48z" />
    <glyph glyph-name="f" unicode="f" horiz-adv-x="266" 
d="M321 226q20 34 36 33q17 0 1 -43q-12 -30 -33.5 -57t-44 -44.5t-43.5 -30.5t-34 -18l-13 -6q0 -1 22 -34q33 -49 44.5 -85t11.5 -92q0 -52 -9 -71q-23 -48 -70.5 -60t-93 9t-66.5 63q-15 30 -23 87.5t-5 114.5q14 268 65 399q41 102 82 114q17 5 41 -2q64 -17 86 -71
q9 -20 5.5 -48.5t-17.5 -45.5q-4 -5 -5.5 -6t-3.5 -0.5t-6 3.5q-9 8 -23 72l-3 15l-12 -32q-18 -46 -35.5 -125t-21.5 -137l-2 -30l16 2q14 2 38.5 13.5t38.5 22.5q16 13 40 41t37 49zM74 297q2 5 0 8q-1 -3 -2 -5q1 -3 2 -3zM92 353q17 48 29 71q10 20 24 41q12 17 6 16
q-4 -1 -15 -14q-22 -25 -47 -103q-16 -49 -13 -49q3 2 16 38zM159 -236q29 15 41.5 50t9.5 75t-12.5 77.5t-23.5 62t-26 24.5q-3 0 -7 -67.5t-4 -131.5t6 -89q1 -3 1.5 -4t2.5 -1t4 0.5t8 3.5z" />
    <glyph glyph-name="g" unicode="g" horiz-adv-x="469" 
d="M543 256q15 15 23 -13q4 -14 -6 -35q-17 -36 -67 -90.5t-87 -78.5l-27 -17l-4 -43q-14 -121 -72 -222q-19 -35 -30 -48.5t-28 -21.5q-50 -27 -111.5 -22t-101.5 45q-37 42 -30.5 93t43.5 93q40 44 89.5 54t90.5 -19q10 -6 15 -8t6 0q2 6 8 38t6 38q0 8 -13 -2
q-1 -2 -4 -4q-52 -41 -113 -23q-22 7 -45 30q-40 41 -50 88.5t9 112.5q17 61 49.5 107.5t69.5 65.5q25 12 54 12q49 0 77 -19l14 -9l5 18q1 4 2.5 9.5t2.5 10t1 5.5q4 2 19 4t34.5 -11t23.5 -39q2 -16 -4 -142q-7 -124 -4 -126q1 -2 14 10t34 35.5t48 55.5q12 14 26.5 30.5
t22.5 26t10 11.5zM24 -185q2 9 3.5 15.5t0.5 6.5l-6 -16q-3 -13 -3 -18.5t2 1.5q2 4 3 11zM78 239q-1 -3 3 2q1 3 4 9q4 6 6 10q14 27 31 52l16 21l-14 -13q-10 -10 -25.5 -38t-20.5 -43zM96 -266q25 -54 81 23q17 24 26 43q37 88 37 106q0 3 -17.5 5t-38.5 0.5t-29 -6.5
q-45 -26 -63 -74.5t4 -96.5zM288 -21q8 56 5 56l-7 -31q-19 -119 -65 -218q-16 -35 -12.5 -33t22.5 39q44 90 57 187zM296 302q4 19 3.5 24t-6.5 10q-7 7 -22 7q-52 0 -95 -61.5t-60 -162.5q-6 -36 -2 -62q8 -43 17 -48q5 -4 26 -1t34 10q39 20 56 52q17 33 23.5 56t12.5 78
q7 68 13 98zM304 145q2 7 0 11q-1 -2 -2 -6l1 -7zM308 170q2 8 0 19q-1 4 -1 -1q0 -1 -0.5 -3.5t-0.5 -4.5l1 -12zM312 212q2 8 0 19q-1 -2 -2 -9l1 -12zM327 320q6 35 4 38l-4 -13q-10 -43 -12 -79l-2 -25l4 23q5 36 10 56z" />
    <glyph glyph-name="h" unicode="h" horiz-adv-x="507" 
d="M597 258q6 -1 8 -4.5t0 -12.5t-8.5 -23.5t-19.5 -38.5q-13 -25 -55 -106q-49 -97 -99 -156q-44 -48 -101.5 -38.5t-93.5 62.5q-18 26 -18 73q0 36 8.5 72t37.5 126q14 42 21 65t10 36.5t2.5 17.5t-3.5 4q-8 0 -38.5 -35.5t-47.5 -64.5q-29 -48 -34.5 -66t-4.5 -62
q2 -74 -1.5 -106t-16.5 -56q-20 -30 -69.5 -28.5t-65.5 18.5q-8 8 -8 16.5t8 31.5q11 37 19 232q6 158 23 242q30 156 72 193q15 14 33 14q15 0 29 -7.5t17 -16.5q2 -7 -4 -35q-10 -46 -22 -127t-18 -144.5t-2 -63.5q3 0 21 27q38 61 78 80q24 12 43 9q29 -4 50 -25
q27 -26 27 -65.5t-27 -176.5q-10 -50 -14.5 -81.5t-5.5 -59t6.5 -34t22.5 0t42 35.5t65 79q42 54 93 151q18 34 24.5 41.5t16.5 6.5zM55 98l1 97l-3 -78q-2 -61 -5.5 -86.5t-13.5 -59.5q-8 -27 -5 -30q3 -6 7 6q3 6 8 23q8 23 9.5 41t1.5 87zM64 338q2 8 0 15q-1 3 -1 0
l-1 -9l2 -8v2zM134 629l5 10q-1 0 -3 -2q-24 -20 -48 -124q-23 -99 -23 -138l5 16q3 11 5 25q11 64 19 93q20 82 40 120zM278 181q31 113 31 119q0 8 -51 -164q-9 -32 -15 -63v-12v1q1 3 35 119v0z" />
    <glyph glyph-name="i" unicode="i" horiz-adv-x="255" 
d="M203 507q-41 -9 -74 28.5t-18 77.5q21 55 65 31q36 -18 53 -63q21 -53 -14 -70q-5 -3 -12 -4zM350 259q19 -16 -33 -126q-21 -43 -49.5 -78.5t-63.5 -59t-76 -20.5t-79 38q-31 29 -41.5 63.5t-5.5 91.5q11 109 56 202q38 77 67 77q44 0 59.5 -36t3.5 -79
q-27 -94 -42 -178q-2 -12 -7 -36q-13 -72 -3 -82q14 -14 77 43q43 39 82 126q22 50 27 55q10 12 28 -1zM116 401q22 41 12 32q-3 -3 -8 -10q-18 -23 -38 -71t-30 -91q-9 -41 -6 -38q1 1 8 26q9 33 27 77q24 55 35 75zM135 618q-6 -8 -6 -12q0 -5 4 3l3 6l2 7z" />
    <glyph glyph-name="j" unicode="j" horiz-adv-x="215" 
d="M54 372q14 34 50 25t44 -37q5 -18 3 -119.5t-9 -166.5q-11 -110 -21 -159t-33 -102q-36 -83 -72 -110q-40 -32 -103.5 -28.5t-97.5 43.5q-32 37 -34 99t27 96q18 22 54 32q66 17 101 -17q16 -15 2 -17q-8 -3 -28 9q-25 14 -51.5 6t-39.5 -34q-19 -37 -6.5 -95t43.5 -78
q7 -5 9.5 -5t9.5 5q16 10 36.5 50.5t32.5 86.5q26 102 56 373q12 105 27 143zM161 565q22 -15 28 -33q8 -23 4.5 -44.5t-16.5 -28.5q-9 -5 -27.5 -4t-28.5 6q-21 10 -36.5 32.5t-15.5 42.5q0 38 27 46t65 -17zM96 556q4 2 4 4t-4 2t-4 -4t4 -2zM147 512q1 6 -2 6
q-3 -3 -3 -8q0 -13 5 2zM82 369q2 8 2.5 12.5t-0.5 4.5q-15 0 -26 -136q-15 -163 -39 -294q-18 -104 -47 -174q-11 -25 -9 -26q1 0 3 3q9 11 19 38q27 64 40 144q19 112 35 279q10 111 22 149z" />
    <glyph glyph-name="k" unicode="k" horiz-adv-x="473" 
d="M547 266q8 0 17 -6.5t9 -12.5q0 -13 -32 -91q-42 -100 -104 -170q-37 -41 -77.5 -46.5t-74.5 17t-61 59t-43 79.5q-5 17 -19 28l-14 11v-34q0 -117 -29 -160q-11 -17 -35 -25.5t-40 12t-1 74.5q10 38 9 94l-1 56l-2 -52q-3 -59 -22 -123q-9 -33 -17 -33q-4 0 -8 9
q-4 10 6 53q11 45 14 133q4 110 19 247q12 107 36 183q23 69 38 90.5t40 21.5q33 0 47 -24q13 -26 -10 -138q-21 -112 -26 -153l-3 -23l15 14q36 35 75 33.5t56 -39.5q11 -25 5.5 -69t-24.5 -84q-11 -24 -29 -45t-29 -24q-7 -2 -6.5 -7t10.5 -17q13 -17 32 -59
q14 -29 31 -40t36.5 -4t37 21t39.5 38q49 54 98 152q18 37 24 45.5t13 8.5zM56 175v32q-1 9 -2 -1v-15l2 -19v3zM59 232q2 9 0 19q-1 -4 -1 -8l1 -12v1zM63 289q2 9 0 16q-1 3 -1 -1l-1 -8l2 -8v1zM67 326q2 7 0 11q-1 -2 -2 -6l1 -7zM75 402q0 9 -1 12l-1 -7l1 -6zM137 640
q10 22 7 22q-1 0 -2 -1q-8 -8 -14 -23q-9 -23 -25.5 -79.5t-20.5 -84.5q-8 -43 -5 -44q1 0 7 28q6 31 24 95q18 60 29 87zM172 183q32 24 63.5 80.5t31.5 88.5q0 16 -31 -4q-44 -29 -58 -51.5t-22 -60.5q-2 -4 -3 -19.5t-0.5 -30t2.5 -14.5t17 11v0zM221 208
q-15 -20 -14 -20t11 11q17 19 24 31q9 16 -3 1q-6 -7 -18 -23z" />
    <glyph glyph-name="l" unicode="l" horiz-adv-x="251" 
d="M342 259q6 -1 7.5 -4t1.5 -14q0 -26 -49 -128q-52 -106 -101 -152q-60 -57 -123 -33q-15 6 -26.5 14t-19.5 14.5t-13.5 19t-8.5 18.5t-5 23t-2.5 22t-1.5 25t-1 24q0 89 17.5 230.5t38.5 243.5q18 89 32 104q11 11 31 11t33 -12q23 -20 24.5 -69.5t-14.5 -194.5
q-18 -161 -33 -235q-5 -27 -8 -98t1 -89q2 -14 8 -14q8 0 37 31.5t47 59.5q21 30 61 109q29 59 42 77t25 17zM107 646q4 13 2 15q-1 2 -5 -5l-2 -4q-7 -13 -21 -99.5t-22 -164.5q-4 -33 -12.5 -92.5t-14 -107.5t-5.5 -93v-51q1 6 2.5 33.5t2.5 40.5q4 51 11 98q4 20 18 139
q8 74 23.5 172.5t22.5 118.5z" />
    <glyph glyph-name="m" unicode="m" horiz-adv-x="721" 
d="M761 216q1 3 19 27q27 32 38 20q7 -8 -3 -32q-16 -36 -64 -115t-89 -133q-14 -18 -35 -40t-30 -26q-34 -18 -77.5 3.5t-59.5 58.5q-15 33 -15 113q0 60 21 185q15 74 12 77q-1 2 -7 -6t-14.5 -22.5t-17.5 -32t-18 -37t-16 -35.5q-30 -79 -39 -149q-10 -85 -45 -94t-66 32
t-36 84q-8 68 25 218q2 11 2.5 17.5t-0.5 6.5q-4 0 -17 -22.5t-21 -44.5q-10 -27 -21 -90q-20 -128 -38 -183q-14 -42 -66 -9q-45 29 -69 77q-4 9 -7 18q-13 44 -2 131t37 148q14 31 23.5 43.5t20.5 12.5q20 0 5 -13q-21 -21 -41 -123q-8 -38 -6 -36t7 24q19 80 41 126
q4 8 8.5 12.5t9.5 4.5t9 -1t9.5 -5.5t8.5 -8t9 -10t9 -9.5l-1 -71v-64q3 16 15 51t19 47q13 26 40 51t42 25q32 -2 56 -27q30 -29 40 -93l4 -31l15 34q49 116 100 138q13 5 30 -1q28 -9 49.5 -37.5t29.5 -66.5q5 -26 4 -78.5t-8 -88.5q-36 -196 -32 -200q2 -2 10.5 4
t22 18.5t26.5 28.5q30 35 78.5 101.5t65.5 97.5z" />
    <glyph glyph-name="n" unicode="n" horiz-adv-x="465" 
d="M537 244q14 26 27 11q4 -3 -9 -36t-33 -73q-64 -125 -83.5 -158t-58.5 -80q-42 -49 -72.5 -41t-47.5 46.5t-18 90.5q-1 74 9 170q12 122 13 150.5t-9 30.5q-12 0 -36 -34t-37 -71q-15 -43 -29.5 -129t-14.5 -136v-31l-14 -2q-25 -3 -56 33q-17 19 -36 58t-26 69
q-6 29 -6 86.5t6 105.5q5 42 23 62t38 8.5t31 -54.5q11 -42 10 -135v-25v-22t0.5 -16.5t0.5 -11.5v-3q3 0 12 45q14 60 38 120.5t42 81.5q38 43 81 15q14 -8 30 -26.5t24 -35.5q40 -87 3 -333q-4 -35 -3 -36q2 -2 33 31q29 31 69.5 93t66.5 115q31 64 32 67z" />
    <glyph glyph-name="o" unicode="o" 
d="M430 251q2 4 12 3.5t13 -4.5q14 -18 -58 -90q-36 -36 -54 -45t-49 -7q-28 2 -29 -4q-11 -33 -31.5 -63.5t-41.5 -43.5q-14 -10 -24.5 -11.5t-44.5 2.5q-21 2 -36 11.5t-38 33.5q-54 57 -48 160q3 57 18.5 101t38.5 63q11 9 21 10.5t32 -2.5l14 -3l2 25q6 45 27 64
q9 9 31 9q42 -2 74.5 -26t42.5 -61q5 -19 -2.5 -95t-18.5 -122q-3 -8 -1 -9.5t13 -1.5q28 0 70 35q39 31 67 71zM80 332q12 18 10 18q-1 0 -7 -4q-19 -13 -34 -55q-9 -27 -7 -29t13 23q15 34 25 47zM209 117l8 15l-21 21q-22 22 -37 53q-2 5 -4.5 10t-4.5 8.5t-3.5 6.5
t-2.5 4l-1 1q-3 -3 -10.5 -52t-9.5 -78q-3 -60 8 -60q4 0 22 11q16 10 32 27.5t24 32.5zM244 210q19 80 15 149q-3 50 -28 59q-18 6 -29.5 -9t-13.5 -48q-2 -32 10.5 -95t25.5 -88q6 -12 10 -2q3 7 10 34z" />
    <glyph glyph-name="p" unicode="p" horiz-adv-x="501" 
d="M593 261q6 0 7 -17q3 -52 -84 -136q-26 -26 -43 -36.5t-47 -18.5l-26 -7l-12 -25q-27 -50 -63 -60q-17 -5 -49 -2q-53 4 -88 35l-16 14l2 -61q7 -162 5.5 -217.5t-13.5 -91.5q-7 -23 -14 -28t-29 -3q-32 3 -74 15t-47 32q-3 9 10 56q7 28 8 64.5t-2 169.5q-3 144 3 216.5
t26 130.5q10 29 27.5 64.5t25.5 42.5q24 16 54.5 4t44.5 -34q10 -16 12 -34l2 -19l20 25q18 22 30 29.5t30 7.5q35 0 62 -28.5t41 -79.5q7 -28 12.5 -79.5t3.5 -76.5l-3 -30l15 6q24 11 62 40q40 31 79 96q22 36 28 36zM57 -276v25l-7 -29q-5 -20 -13 -44q-6 -13 -4 -20
q5 -14 14 8l4 12q6 26 6 48zM119 352q18 37 13 37q-9 0 -31 -50q-11 -25 -21.5 -62t-9.5 -47l10 25q3 6 5 14q17 49 34 83zM199 72v0q8 4 48 6l38 1l13 26q17 36 21.5 62t3.5 84q0 73 -4 82q-4 7 -5.5 8t-9.5 -3q-19 -10 -45 -42t-42 -64q-44 -87 -44 -162v-19l8 8
q11 9 18 13zM231 15q7 4 22 17.5t15 16.5q0 4 -12 2.5t-25 -6.5q-15 -7 -20.5 -15.5t2.5 -13.5q6 -5 8 -5.5t10 4.5v0zM295 32q8 12 8 13q0 13 -19 -14q-11 -14 -8 -14q1 0 3 1q7 4 16 14zM329 99q11 32 7 30q-2 -1 -9 -17q-5 -13 -7.5 -19t-4 -11t-1 -6t2.5 -1q5 0 12 24z
" />
    <glyph glyph-name="q" unicode="q" horiz-adv-x="468" 
d="M560 262q5 0 6.5 -4.5t1.5 -22.5q-3 -50 -34 -87.5t-84.5 -75.5t-71.5 -56q-1 0 0.5 -3t5 -7.5t8.5 -9.5q90 -93 90 -202q0 -56 -21 -96q-19 -38 -59 -40.5t-76 17.5t-60 47q-48 52 -58 225l-2 52l-10 -4q-12 -4 -44 -1q-33 2 -52 12t-48 40q-28 29 -39 51t-12 54
q-1 29 12 67q40 116 110 148q29 14 71 9.5t68 -24.5q7 -5 11 -8t4 -2q1 0 14 32q11 31 19 39q14 16 42.5 0.5t38.5 -35.5q7 -17 7 -67.5t-7 -85.5q-32 -149 -33 -157q-2 -10 -1 -12t9 0q20 5 80 57q37 31 52 51t30 55q13 29 18.5 36.5t13.5 7.5zM68 262q19 35 34 56l21 28
l-22 -23q-37 -38 -60 -106q-11 -33 -9 -36l6 13l4 10q21 48 26 58zM215 105q8 70 38 161l15 45l-11 11q-11 9 -18 9.5t-23 -6.5q-52 -23 -87 -148q-22 -79 -14 -115q3 -14 9.5 -19t18.5 -3t31 12q26 13 32 20.5t9 32.5zM263 164q2 5 0 7q-1 1 -1.5 0t-0.5 -5t1 -4zM334 396
q4 5 2 10q-2 4 -6 -3q-4 -9 -33 -105t-31 -109l-2 -15l6 15q1 4 5.5 19t12.5 42t14 48q28 95 32 98zM396 -61q-8 15 -23.5 36t-19.5 21t-6 -47q-2 -40 1.5 -99t10 -102t12.5 -43q3 0 16 15q76 87 9 219z" />
    <glyph glyph-name="r" unicode="r" horiz-adv-x="360" 
d="M378 147l45 75q40 61 37 25q-1 -8 -4 -20q-5 -28 -42 -100q-4 -7 -14 -27.5t-14.5 -29t-14.5 -27t-16 -27t-17 -22.5t-20 -21t-21.5 -15t-25 -10.5t-27.5 -2.5t-31 4q-15 4 -36.5 22t-35.5 38q-41 59 10 221q21 68 19 71q-1 1 -8 3q-6 1 -18 4q-3 2 -6.5 -1.5t-8.5 -14.5
q-49 -94 -69 -141q-16 -39 -26 -53t-21 -13q-7 0 -10 2.5t-3 9t3 16.5t10 26q11 27 35.5 75t31.5 64q17 34 17.5 43t-13.5 18q-22 14 -46.5 39.5t-34.5 45.5q-13 27 -12 56q0 49 22 81t57 35q32 3 61 -13t37 -42q4 -14 2.5 -59t-7.5 -78q-6 -26 -6 -34q0 -2 18 -2
q39 0 58 17q18 15 47 5t39 -30q6 -11 0 -37q-5 -22 -17 -61q-12 -36 -19 -64q-19 -64 -24 -79q-38 -118 -21 -118q7 0 32.5 17.5t39.5 32.5q13 14 40.5 52.5t27.5 43.5zM41 563v1l-6 -5q-16 -21 -16 -43l13 25zM122 448q9 83 -2 99q-3 4 -10 -2q-12 -10 -15.5 -24.5
t-4.5 -51.5q0 -34 3.5 -48.5t14.5 -29.5q5 -6 8 7zM206 277q7 22 4 22t-8 -9q-5 -10 -23 -69.5t-20 -74.5q-1 -5 2 1l16 47q21 67 29 83z" />
    <glyph glyph-name="s" unicode="s" horiz-adv-x="333" 
d="M422 256q11 10 11 -8q-1 -5 -2 -12q-6 -27 -45 -74q-50 -63 -83 -83t-119 -39l-8 -2l11 -41q26 -98 5 -136t-97 -36q-18 0 -45 3q-25 4 -57.5 32t-38.5 50q-11 39 7.5 74t59.5 54q14 7 19 11t4 8q-16 56 -16 126q0 49 5 86q22 111 70 145q11 8 18.5 10t30.5 2
q58 0 95 -36q37 -37 37 -82q0 -23 -4.5 -43t-10.5 -22q-5 -2 -9 2.5t-8 16.5t-8 32q-12 64 -23 77q-16 16 -35 -3q-19 -22 -28 -70q-6 -33 -2 -102q7 -112 14 -119q3 -4 30.5 3.5t47.5 17.5q23 11 47.5 34t87.5 90q36 38 35 34q-2 -4 -1 -4t5 4zM37 -102q20 21 20 69
q0 33 -4 33q-5 0 -19 -14t-19 -25q-15 -28 -2 -59q8 -21 24 -4zM88 -92q4 14 1.5 13.5t-11.5 -14.5q-12 -20 -8 -20q1 0 6 3q6 5 12 18zM106 380q12 19 11 20q0 1 -7 -5q-20 -18 -34 -66q-7 -25 -7 -32q-1 -4 2 3q4 7 10 25q13 39 25 55z" />
    <glyph glyph-name="t" unicode="t" horiz-adv-x="279" 
d="M354 254q10 1 17.5 -5t7.5 -15q0 -12 -12 -54t-23 -69q-32 -75 -61 -123q-12 -21 -39.5 -53t-37.5 -37q-44 -21 -76 -9t-52.5 49.5t-30.5 79t-10 77.5q0 80 10 143q9 62 8 63q0 1 -8 -3t-16.5 -9t-9.5 -7q-5 -8 -15 2q-11 12 -0.5 29t39.5 33q23 11 26 18q1 3 27 96
q51 184 61 192q5 6 21.5 2.5t26.5 -12.5q16 -13 21.5 -30t7.5 -53q4 -65 -13 -159q-1 -10 0 -12.5t8 -2.5q9 0 30.5 -5.5t28.5 -9.5q5 -2 10.5 -9t5.5 -11q0 -5 -56 -10q-37 -4 -37 -5q-3 -3 -10 -42q-18 -93 -32.5 -204.5t-11.5 -129.5q2 -10 3.5 -10.5t9.5 3.5q15 8 39 32
t40 48q58 88 87 200q3 15 5.5 18.5t10.5 3.5zM83 237q2 7 0 12q-1 -4 -2 -7l1 -6zM94 293v0q2 10 2.5 17t-0.5 7q-2 0 -7 -25.5t-4 -32.5q0 -5 2 4q3 8 7 30zM111 378q3 0 28 102q25 100 27 118l-21 -75q-4 -18 -7 -27q-5 -18 -12 -47q-19 -71 -17 -71h2z" />
    <glyph glyph-name="u" unicode="u" horiz-adv-x="418" 
d="M506 258q11 -3 12 -9q1 -11 -32 -112q-71 -215 -148 -230q-55 -9 -91 13t-45 77l-5 32l-10 -18q-27 -45 -70.5 -48t-78.5 37t-37 106q-2 86 17 165.5t50 114.5q15 16 24 14q12 -2 15 1q6 4 20 -1.5t25 -15.5q20 -17 21 -52.5t-15 -167.5q-12 -102 -10 -102l4 3
q11 9 32.5 60t31.5 90q34 123 55 159q10 17 19 22t30 4q52 -3 64.5 -40.5t-9.5 -124.5q-8 -34 -25 -138t-16 -114l1 -12l22 21q63 58 110 198q15 43 22.5 56t16.5 12zM84 351q14 38 11 37q-1 0 -7 -10q-26 -42 -41 -119q-8 -41 -12.5 -94.5t-1.5 -75.5l3 -14q1 4 3 37
q4 46 9 88q12 82 36 151zM241 113q5 26 3 26q-1 0 -5 -7q-7 -12 -8 -69v-57l3 43q4 49 7 64z" />
    <glyph glyph-name="v" unicode="v" horiz-adv-x="393" 
d="M484 260q6 -1 7.5 -3.5t0.5 -12.5q0 -12 -17 -48q-29 -59 -83 -85q-24 -12 -56 -12q-30 0 -45 9q-15 8 -16 7q-3 -3 -26 -67q-41 -109 -65 -125q-10 -6 -34.5 -7.5t-35.5 3.5q-15 7 -39.5 25t-32.5 29q-42 55 -42 156q1 75 18.5 155t39.5 104q10 10 39 2t40 -22
q11 -13 12 -34t-7 -79q-21 -154 -15 -222q9 -74 16 -74q3 0 18 17q25 24 64 126l17 46l-13 27q-14 28 -17 54q-4 34 3.5 88t20.5 80q18 36 49.5 45t56.5 -14q15 -12 11.5 -37t-36.5 -133q-28 -101 -28 -105q0 -7 11 -18t27 -11q54 0 104 76q40 60 53 60zM31 146q2 8 0 17
q-1 -4 -1 -9l1 -9v1zM80 373q4 7 -1 7q-3 0 -13 -27t-16 -52q-19 -78 -17 -115q0 -16 3 -2q0 3 1 8q0 5 1.5 14.5t4 22t3.5 19.5q14 67 34 125zM268 221q0 1 3.5 12t9 32t11.5 40q29 106 23 106q-2 0 -13 -13q-21 -25 -31 -78q-8 -48 -5 -94l1 -6z" />
    <glyph glyph-name="w" unicode="w" horiz-adv-x="596" 
d="M672 242q25 30 23 4q0 -13 -7 -35q-4 -15 -9 -23q-10 -22 -36.5 -51.5t-44.5 -39.5q-21 -11 -46 -11t-37 6l-11 6l-15 -37q-24 -61 -41.5 -85t-43.5 -35q-71 -25 -119 10q-14 11 -32 29.5t-18 22.5q0 1 -6 17l-7 15l-7 -15q-10 -19 -29 -39t-30 -24q-44 -15 -81.5 9.5
t-56 66.5t-18.5 86q0 83 23 166q14 47 32 77.5t33 30.5q33 2 49 -28q8 -13 7.5 -52t-8.5 -85q-14 -78 -21.5 -151.5t-1.5 -79.5q5 -5 27.5 12.5t35.5 37.5q30 45 38 125q16 146 60 197q9 7 29 4.5t31 -10.5q20 -15 22 -40t-9 -108q-20 -160 -20 -199q0 -34 3 -39t24 1
q23 8 42.5 30t43.5 70q18 37 21 46t0 18q-20 48 -21 111q-1 47 1.5 99.5t6.5 64.5q5 10 18 10q48 0 62 -70t-9 -195q-5 -23 -4.5 -29t5.5 -12q13 -14 46 0q35 16 90 99q8 12 16 22zM39 212q2 5 -1 8q-1 -3 -2 -5q0 -7 3 -3zM80 348q13 30 8 28q-7 -2 -24 -52t-22 -80
q-1 -7 2.5 1t8.5 27q15 48 27 76zM292 348q6 16 4 16l-3 -2q-5 -5 -10.5 -17t-5.5 -18q0 -9 9 9q3 5 6 12zM496 311q1 52 -4 61q-3 4 -4 -4q-1 -11 -1 -59q2 -61 5 -62q4 12 4 64v0z" />
    <glyph glyph-name="x" unicode="x" horiz-adv-x="430" 
d="M528 242q4 -9 -4 -35q-7 -22 -31 -70.5t-41 -74.5q-56 -85 -122.5 -91.5t-125.5 70.5l-21 27l-11 -16q-18 -26 -45 -47t-60 -26.5t-57 28.5q-21 27 2 27q10 0 46 40q34 38 57 72l23 34l-13 41q-34 103 -21 136q9 8 19 8.5t19 -5.5t14 -10t8 -8q15 -15 25 -44l8 -28l12 15
q17 23 51.5 55t50.5 39q43 22 60 -5q4 -5 1 -10t-17 -20q-17 -18 -56 -75.5t-56 -90.5l-14 -28l9 -36q14 -55 23 -69t31 -14q46 0 89.5 43t96.5 143q21 39 24 41q4 2 13.5 -3.5t12.5 -12.5zM85 64q19 19 40 49t21 37q0 3 -21 -27q-25 -35 -54 -66q-25 -27 -22 -27
q13 7 36 34zM225 268q24 31 30 38q8 10 8.5 10.5t-7.5 -6.5q-10 -8 -29.5 -33.5t-19.5 -29.5q0 -1 4.5 4.5z" />
    <glyph glyph-name="y" unicode="y" horiz-adv-x="435" 
d="M471 196q36 47 57 57q15 8 -4 -26l-41 -61q-17 -24 -52.5 -59.5t-57.5 -50.5q-24 -15 -26 -19q-1 -2 -5 -31q-2 -23 -15 -88.5t-21 -95.5q-17 -59 -45 -90q-38 -41 -99 -47t-110 28t-51 98q-3 60 30 101q24 31 70 43.5t83 -0.5q22 -9 24 -2q3 12 10.5 51.5t6.5 43.5
q-1 5 -16 -13q-15 -21 -30 -30q-11 -8 -19 -9.5t-32 -1.5q-26 0 -33.5 2t-24.5 14q-27 19 -35 44t-8 87q0 53 10 118.5t24 101.5q7 18 19.5 33t20.5 15q11 0 -3 -27q-8 -13 -16 -40q-7 -27 -16 -82.5t-9 -69.5q1 -7 3 3l7 34q18 108 39 160q8 17 16.5 18.5t25.5 -11.5
q20 -14 24 -28.5t3 -59.5q-4 -59 -11 -90q-7 -38 -17 -104.5t-8 -68.5t28 26t36 43q13 22 21 44q9 25 13 29q2 2 6 25q2 29 12 88q8 60 15 79.5t21 21.5h5.5h6.5t6.5 -0.5t7 -1.5t7 -3t7.5 -5.5t6.5 -8t6 -10.5t4.5 -14q10 -39 4 -188q-4 -89 -2 -91q1 -2 26 21t54 53t41 45
zM122 -253q19 13 41 59t33 92l6 26l-10 4q-13 4 -30 6q-54 5 -79.5 -57.5t7.5 -120.5q8 -14 14 -15.5t18 6.5zM229 -110q9 38 4 38l-2 -2q-3 -3 -10 -33q-13 -60 -41 -114q-8 -16 -6 -16t12 16q27 40 43 111zM248 -21q7 36 13.5 92t4.5 57q-2 0 -6 -30q-16 -120 -27 -150
q-4 -17 1 -16q1 0 3 2q3 2 11 45zM270 200q2 7 0 11q-1 -4 -2 -7l1 -6zM275 245q3 14 3 28q0 13 -3 -6q-3 -14 -3 -28q0 -13 3 6zM281 299q2 7 0 12l-1 -7l1 -7v2zM285 337q2 7 0 12q-1 -4 -2 -7l1 -6zM289 358q2 5 0 10q-1 -3 -2 -5l1 -6z" />
    <glyph glyph-name="z" unicode="z" horiz-adv-x="436" 
d="M500 242q12 24 24 18.5t12 -30.5q-6 -22 -12 -39t-9.5 -27t-10.5 -23.5t-9.5 -18.5t-13.5 -23t-15 -25q-24 -41 -64.5 -64.5t-84.5 -22.5q-42 0 -92 2q-46 1 -73 -7q-54 -21 -77 -17.5t-51 47.5q-5 8 -1.5 19t20.5 38q53 89 149 188l61 62l-21 19q-23 21 -42 48
q-21 30 -25 28q-2 0 -24 -67t-29 -82q-6 -14 -12 -18.5t-11 2.5t-1 40t15 68q5 15 12 39.5t7 25.5q12 48 25 48q24 0 75 -48q22 -21 63 -40t71.5 -36t38.5 -42q3 -11 1.5 -14.5t-13.5 -17.5q-19 -21 -40 -47q-26 -32 -54 -55q-27 -25 -65 -69l-36 -42l15 -2q7 -2 56 -6
q39 -2 84 5t60 27q61 81 68 95q28 63 29 64zM105 100q67 93 150 170q29 30 24 32q-5 0 -66 -63t-82 -90q-14 -17 -30.5 -40t-27 -39t-10.5 -18q0 -8 24 24q7 9 18 24z" />
    <glyph glyph-name="braceleft" unicode="{" horiz-adv-x="488" 
d="M483 739q25 0 51 -18.5t26 -36.5q0 -7 -13 -5q-43 8 -87.5 -65t-67.5 -190q-23 -115 -42.5 -161.5t-56.5 -76.5l-19 -15l15 -19q52 -70 61 -207l3 -53l12 -10q10 -9 35 -17q32 -9 64 10q24 15 40 -5q6 -7 6.5 -10.5t-4.5 -13.5q-6 -12 -23 -31q-11 -11 -16 -14t-15 -3
q-16 0 -47 9q-38 11 -62.5 28t-49.5 50q-26 36 -31.5 53.5t-7.5 77.5q-4 118 -18 128q-3 2 -16 -2q-12 -4 -22 2q-8 6 -18 6q-8 0 -16.5 10t-7.5 18q2 5 -1 5h-2q-5 -2 -10 6t3 13q84 59 110 102t60 179q27 107 64 173q50 83 103 83zM274 281l5 12q-2 -2 -19 -22
q-18 -22 -37 -37q-21 -19 -17 -19q6 0 33 25t35 41zM436 692q15 18 11 17q-19 -11 -37 -44l-5 -9q1 1 5 6q16 20 26 30z" />
    <glyph glyph-name="bar" unicode="|" horiz-adv-x="297" 
d="M234 272q0 -108 18 -266q6 -63 3 -66q-2 -2 -21 -6q-18 -1 -23 4q-4 6 -7 3q-2 -1 -6 4q-2 7 -6 5q-5 -1 -12.5 12t-10.5 26q-3 11 -16 104q-22 169 -11 385q12 240 32 275q8 15 22 16q13 0 25.5 -8t17.5 -20q4 -12 4 -120.5t-5 -186.5q-4 -49 -4 -161z" />
    <glyph glyph-name="braceright" unicode="}" horiz-adv-x="319" 
d="M35 -202q-25 0 -51 18.5t-26 36.5q0 7 13 5q43 -8 87.5 65t67.5 190q23 116 42 162t57 75l19 15l-15 20q-52 70 -61 206l-3 54l-12 10q-10 9 -35 17q-31 9 -64 -10q-26 -16 -40 5q-6 7 -6.5 10.5t4.5 13.5q9 15 23 31q11 11 16 14t15 2q13 0 47 -8q38 -11 62.5 -28
t49.5 -50q26 -36 31.5 -53.5t7.5 -77.5q4 -118 18 -128q3 -2 16 2q12 4 22 -2q8 -6 18 -6q8 0 17 -10t7 -18q-2 -5 1 -5h2q5 2 10 -6t-3 -13q-60 -42 -86 -71t-43 -71.5t-41 -139.5q-27 -108 -64 -172q-50 -83 -103 -83zM244 256q-6 -13 -5 -12t18 22q23 25 38 37
q21 19 17 19q-6 0 -33 -25t-35 -41zM82 -155q-15 -17 -11 -17q17 9 37 44l4 9q-1 -1 -4 -6q-9 -12 -26 -30z" />
    <glyph glyph-name="asciitilde" unicode="~" horiz-adv-x="541" 
d="M470 268q0 14 18 4q13 -7 19 -20q6 -14 8 -41t-2 -36q-6 -10 -23 -20q-24 -16 -59 -10t-100 36q-47 22 -68 21q-30 0 -54.5 -16t-36.5 -43q-7 -18 -9 -18q-3 1 -7 2q-7 2 -14 18q-27 55 16 96q29 29 71 29q22 0 100 -32q59 -25 89 -12q12 5 32 21t20 21zM170 228q8 8 5 8
q-1 0 -9 -8q-6 -8 -5 -8t9 8zM457 219q16 14 13 16q-1 1 -10 -6q-16 -12 -16 -15q0 -6 13 5z" />
    <glyph glyph-name="exclamdown" unicode="&#xa1;" horiz-adv-x="340" 
d="M217 -80q-17 -16 -36.5 -11.5t-32.5 27.5q-7 14 -6 93t10 162q27 228 31 307.5t-7 119.5q-3 10 8 9q7 -1 23 -9q13 -7 33 -14q60 -19 66 -178q2 -58 -7 -163.5t-20 -161.5q-28 -146 -62 -181zM198 664q-11 8 -19.5 23t-8.5 26q0 26 38 24q21 0 27 -2q5 -1 24 -20
q18 -17 18 -29q0 -10 -8 -19.5t-16 -9.5q-6 0 -6 -4q-1 -3 -9.5 -2.5t-20.5 4.5t-19 9zM209 -43q-9 -26 -7 -26q1 0 3 3q16 21 36 125q18 97 25 176q2 30 8 82q3 27 3 98l-1 65l-3 -67q-2 -69 -9 -144q-7 -83 -23 -175.5t-32 -136.5z" />
    <glyph glyph-name="sterling" unicode="&#xa3;" horiz-adv-x="634" 
d="M597 39q22 -1 36 -36q15 -41 3.5 -77.5t-43.5 -53.5q-26 -12 -79 -15.5t-91 4.5q-25 6 -73 20q-47 15 -65 18t-35 -3q-16 -7 -24 -4q-7 2 -20 -3q-12 -4 -22 -2t-10 8t-9 3q-7 -2 -7 1q0 1 1 5q2 5 0.5 6.5t-7.5 0.5q-10 0 -15 8q-4 5 -3 8.5t9 13.5q25 31 42 98
q13 54 21 167l3 32l-15 -3q-3 0 -34 -6q-13 -2 -17 -1.5t-9 6.5q-6 8 -6 15q0 14 57 34l29 10l3 23q10 72 30 158t36 127q17 41 32 61t40 31q35 16 82 -5q20 -8 42.5 -32t22.5 -36q0 -13 -26 4l-13 11q-23 19 -25 19q-3 0 -16 -11q-53 -44 -86 -261q-9 -63 -9 -71t25 -10
q47 -5 63 -24q14 -20 -3 -21q-12 0 -34 -5q-24 -6 -39 -6q-16 0 -18 -4q-3 -5 -8 -101q-7 -125 -23 -171l-5 -16q0 -2 14 -4q41 -10 65 -18q53 -15 81 -17q21 -2 29 -0.5t22 8.5q32 15 53 57q30 60 48 60zM206 -6q21 65 21 109q-1 7 -3 -1q0 -3 -2 -12l-1 -4
q-13 -74 -34 -122l-7 -15l9 7q8 8 17 38v0zM260 409q2 5 0 7q-1 -3 -2 -5zM264 432q2 5 0 7q-1 -3 -2 -5zM268 451q2 5 0 7q-1 1 -1.5 -0.5t-0.5 -4.5zM272 466q2 4 0 9q-1 1 -2 -4l1 -6zM279 514l-5 -27q3 4 13 39q14 49 25 73q10 25 22 45q11 17 7 17q-10 -4 -29 -49
t-33 -98zM575 -25q8 23 6 25q-1 1 -2 -1t-3 -5q-1 -4 -13 -32q-9 -20 -7 -20l3 3q6 3 16 30z" />
    <glyph glyph-name="copyright" unicode="&#xa9;" horiz-adv-x="453" 
d="M405 298q11 -22 11 -61q0 -38 -12 -63q-23 -45 -50 -52q-9 -2 -9 -7q1 -2 4 -2t10 -9q5 -10 1 -22q-9 -32 -21 -37q-27 -12 -68 3q-40 14 -63 36t-46 66q-23 47 -14 93q15 74 90 111q27 13 56 13q27 0 51 -11q41 -20 60 -58zM303 104l25 7l-21 4q-43 9 -62 23t-35 46
l-10 19v-25q0 -25 13 -45q15 -26 34 -32t56 3v0zM370 275q0 26 -9 34q-10 8 -32 7t-45 -12l-25 -12l25 -8q24 -9 37 -25q22 -28 8 -42q-13 -13 -23 9q-6 12 -11 13t-16 -8q-16 -12 -23 -37t4 -29q9 -2 28.5 1t30.5 9q23 12 37 39t14 61z" />
    <glyph glyph-name="plusminus" unicode="&#xb1;" horiz-adv-x="470" 
d="M356 -4q80 -10 80 -27t-130 -17q-137 0 -160 -10q-7 -2 -16 7q-17 17 3 27q28 17 91 22.5t132 -2.5zM317 263q31 0 66 -11.5t49 -27.5q13 -14 6 -16q-8 -3 -48 -2q-49 0 -75 -2l-22 -3v-52q0 -26 -2 -48.5t-5 -35t-7 -11.5q-3 0 -17 2q-40 5 -55 98l-5 28
q-1 1 -22.5 -9.5t-32.5 -18.5q-13 -11 -10 -15q2 -5 -1 -5q-5 1 -12 9q-16 21 -1 45t59 47l24 12l5 41q4 43 9 57q2 10 7 13t9 -3q4 -4 11 -4q13 0 24.5 -18.5t14.5 -45.5l3 -24h28z" />
    <glyph glyph-name="questiondown" unicode="&#xbf;" horiz-adv-x="491" 
d="M314 673q-8 2 -22 18t-16 26q-5 16 2.5 31t18.5 14q2 -1 20 -3q13 -2 27 -14t22 -26q11 -23 -7 -46q-9 -13 -34 -4q-1 1 -11 4zM107 70q-7 42 6.5 84t55.5 117q55 96 88 173q57 127 57 176q0 10 3 11t21 -2q24 -6 53 -48q15 -23 15 -48q0 -47 -40 -140t-109 -207
q-44 -74 -55 -100q-12 -28 -12 -64q0 -33 4.5 -44t18.5 -13q38 -7 89 18q23 11 45.5 33.5t34.5 45.5q17 33 16 54t-20 41l-15 16h10q19 0 40.5 -18.5t34.5 -46.5q15 -30 1.5 -74.5t-48.5 -78.5q-41 -41 -93.5 -52.5t-98.5 10.5q-84 39 -102 157zM395 -21l-17 -22l17 18
q14 16 23 31l5 9q-1 -1 -5 -6q-1 -1 -9.5 -12.5t-13.5 -17.5zM339 407q-6 -12 -6 -14q0 -3 5 4q0 1 1 2q5 8 5 13q0 3 -3 -2q-1 -2 -2 -3zM242 222q-54 -90 -54 -101l14 22l4 7q5 9 41 69q17 29 47.5 88t30.5 64l-14 -25q-9 -16 -14 -25q-22 -44 -55 -99z" />
    <glyph glyph-name="Adieresis" unicode="&#xc4;" horiz-adv-x="538" 
d="M335 751q-5 -11 -19 -24t-22 -15t-23.5 5t-22.5 16q-6 9 -8 26.5t2 27.5q3 7 19 25q22 21 49 17q10 -2 20.5 -12t10.5 -17q0 -5 3 -8q8 -4 -9 -41zM422 791q12 20 30 31q13 7 32 3t29 -17q9 -9 8 -23q-4 -20 -18 -36.5t-32 -21.5q-25 -7 -45 13q-8 8 -8 25q0 16 4 26z
M297 773q10 -4 14 -4q5 0 -2 4q-5 5 -13 5l-6 -2q1 0 7 -3zM538 -167q21 -15 19 -19q-6 -9 -45 6q-53 22 -78.5 61t-41.5 123q-7 33 -7 155v122l-25 2q-23 3 -73.5 1t-64.5 -7l-14 -4l-6 -33q-18 -102 -25.5 -211.5t4.5 -110.5q3 0 3 -4q0 -5 -15.5 -6t-31.5 4
q-68 22 -103.5 74.5t-34.5 110.5t35 114.5t94 86.5l31 16l6 47q13 94 59 188q63 126 143 126q45 0 74.5 -26.5t42 -63t16 -87.5t1.5 -87.5t-7 -74.5q-25 -203 -16 -317q6 -82 19.5 -124t40.5 -62zM142 168q7 60 7 69q0 12 -31 -27q-18 -22 -26 -38q-17 -34 -18 -78t14 -85
q6 -16 20 -36.5t18 -20.5q2 0 6 78q2 69 10 138zM383 316q2 0 3.5 1.5t2.5 8.5t2 18t3 30q4 59 9 96q3 32 1.5 85.5t-6.5 70.5q-3 11 -5.5 12.5t-9.5 0.5q-31 -7 -56 -40q-12 -17 -35.5 -63.5t-36.5 -81.5q-8 -22 -22.5 -70.5t-14.5 -55.5q0 -4 53 -2q48 1 79 -4
q30 -6 33 -6zM408 -5q-2 138 3 232q2 50 -1 50t-5.5 -54t-2.5 -98l1 -37zM423 391q6 81 5 92q-1 6 -3 -9q-1 -15 -5 -57q-7 -84 -9 -97q-3 -12 2 -12q4 0 4 4q0 1 1 11.5t2.5 30.5t2.5 37z" />
    <glyph glyph-name="Odieresis" unicode="&#xd6;" horiz-adv-x="427" 
d="M150 782q-5 -11 -19 -24t-22 -15t-23.5 5t-22.5 16q-6 9 -8 26.5t2 27.5q3 7 19 25q22 21 49 17q10 -2 20.5 -12t10.5 -17q0 -5 3 -8q8 -4 -9 -41zM237 822q12 20 30 31q13 7 32 3t29 -17q9 -9 8 -23q-4 -20 -18 -36.5t-32 -21.5q-25 -7 -45 13q-8 8 -8 25q0 16 4 26z
M112 804q10 -4 14 -4q5 0 -2 4q-5 5 -13 5l-6 -2zM212 695q80 -38 130 -143q29 -63 38.5 -122t3.5 -148q-4 -81 -14 -126t-32 -89q-28 -57 -74.5 -85t-98.5 -20t-95 54q-39 43 -54.5 79.5t-15.5 88.5q1 100 56 166q19 23 11 23q-2 1 -6 0q-10 -1 -16 16t-7.5 31.5t-1.5 24.5
q3 197 95 252q36 20 81 -2zM109 654q-8 -10 -7 -10q3 0 11 10q9 9 7 9t-11 -9zM107 353q10 12 6 12t-19 -15q-29 -29 -43 -72q-8 -24 -7 -25l9 16q6 11 27 46q1 2 27 38zM266 78q10 13 24 36t14 27l-15 -20q-3 -3 -5 -7q-17 -26 -39 -53q-1 -1 -3 -4l-10 -12q1 0 7 4
q12 10 27 29zM262 115q34 50 47.5 107.5t13.5 153.5q0 171 -70 244q-22 23 -43 26.5t-37 -8t-30 -32.5t-23 -44t-15 -46q-7 -26 -14 -78.5t-4 -55.5q2 -2 13 4q33 17 88 -13q25 -12 32 -31q5 -11 -6 -11t-31.5 -38.5t-32.5 -80.5q-13 -43 -16.5 -96t4.5 -73q3 -7 17.5 -6
t32.5 9q37 17 74 69z" />
    <glyph glyph-name="multiply" unicode="&#xd7;" horiz-adv-x="558" 
d="M523 262q0 5 7 9t10 1q2 -2 2 -29q0 -28 -15 -60q-24 -54 -63.5 -108t-63.5 -65q-16 -7 -44 -10q-32 -6 -50 -1q-18 4 -46.5 21t-46.5 32l-18 16l-14 -29q-39 -81 -49 -125q-4 -21 -7 -21t-11 8q-13 14 -3.5 70.5t34.5 115.5l16 35l-8 32q-13 52 -18 128t4 95q7 13 9 13
q37 7 60 -20q8 -9 23 -40t19 -45q2 -10 6 -10q2 0 28 33t58.5 66.5t42.5 38.5q11 4 21 -2q10 -5 10 -11q0 -7 -23 -35q-48 -60 -103 -141l-20 -30l4 -29q6 -37 20.5 -73.5t25.5 -43.5q5 -3 23 6.5t35 25.5q25 23 67 80q49 65 61 78q17 17 17 24zM159 351q2 8 0 17
q-1 -3 -2 -9l2 -9v1z" />
    <glyph glyph-name="Udieresis" unicode="&#xdc;" horiz-adv-x="547" 
d="M216 751q-5 -11 -19 -24t-22 -15t-23.5 5t-22.5 16q-6 9 -8 26.5t2 27.5q3 7 19 25q22 21 49 17q10 -2 20.5 -12t10.5 -17q0 -5 3 -8q8 -4 -9 -41zM303 791q12 20 30 31q13 7 32 3t29 -17q9 -9 8 -23q-4 -20 -18 -36.5t-32 -21.5q-25 -7 -45 13q-8 8 -8 25q0 16 4 26z
M178 773q10 -4 14 -4q5 0 -2 4q-5 5 -13 5l-6 -2zM472 649q16 -16 20 -48.5t5 -159.5q0 -147 -4 -185q-5 -48 -8 -105q-10 -168 -20 -185q-5 -9 -20.5 -15.5t-27.5 -6.5q-22 0 -35.5 12t-17 29.5t-5.5 37.5t0 36q1 86 -2 87q-1 0 -8 -18q-24 -70 -52 -97t-81 -31
q-32 -2 -52 3.5t-52 27.5q-56 37 -81 98.5t-30 172.5q-5 121 14 221q11 51 28 91t32 47q13 7 33 4.5t34 -12.5l16 -11l1 -28q1 -25 -6 -75q-15 -88 -15.5 -217t13.5 -202q5 -22 14.5 -45t14.5 -23q17 0 52 35q32 36 68.5 132.5t59.5 208.5q19 89 27 169q5 48 12 62
q8 12 34.5 7t38.5 -17zM383 11l0.5 -11.5t1.5 -10.5q4 24 5 25v14q2 42 -1 44l-3 -24q-2 -30 -3 -37zM84 627q7 19 6 20q-2 2 -8 -9q-11 -18 -21 -50q-22 -66 -25 -160l-2 -57l4 44q4 45 9 83q13 73 37 129zM283 126q5 10 8 16.5t2 6.5l-3 -3q-2 -4 -6 -11.5t-8 -15.5
l-11 -24l1 1q8 11 17 30zM394 266v38q-1 -1 -1 -2q-6 -28 -3 -82l1 -7q1 0 3 53z" />
    <glyph glyph-name="germandbls" unicode="&#xdf;" horiz-adv-x="692" 
d="M606 253q38 -79 25 -159q-9 -52 -41.5 -102t-70.5 -69q-21 -11 -56 -11q-60 -2 -128 18q-18 5 -41 25q-18 17 -21 14q-3 -5 -6 -51q-1 -35 -10.5 -91t-17.5 -82q-7 -23 -24.5 -53.5t-28.5 -38.5t-30 -7q-17 3 -32 -3q-16 -8 -34 0q-12 5 -12 9q0 5 -7 3q-7 0 -8 9
q-1 5 -2 6t-2 -2q-4 -5 -10.5 -1.5t-11.5 14.5l-6 13l18 25q26 36 40 80t29 132q21 132 29 337q5 140 28 236q29 119 66 156q9 9 7 13q-3 5 4 5q17 -2 63 -24q70 -34 106.5 -64.5t56.5 -71.5q14 -28 14 -52q0 -40 -26 -72l-9 -12l19 -9q36 -16 76 -53t54 -67zM150 -116
q8 45 8 59l-1 6q-2 -3 -13 -61q-25 -131 -72 -193q-9 -13 -9 -17t5 3q4 9 20 26q26 31 38.5 67t23.5 110zM256 637q10 15 8 16t-8 -6q-5 -6 -19 -36t-14 -36q0 -8 5 3q2 5 8 19q11 25 20 40zM428 458q-2 4 -2 -1q0 -4 -18 -29q-13 -17 -11 -17q1 0 4 3q8 8 20 26q9 16 7 18z
M290 466q-15 -96 -11 -97q1 -1 4 1q2 0 12.5 4t17.5 6q49 15 76 53q31 42 30 80t-35 64q-10 8 -25 18t-26 16t-12 5q-8 -8 -31 -150zM409 -7q32 14 64 55q61 82 61 157q0 91 -59 121q-15 8 -48 8t-61 -8q-52 -15 -75 -4q-5 4 -9 11q-9 28 -10 -35q-1 -47 2 -138l3 -102
l17 -28q17 -29 25 -35q11 -10 39 -11t51 9v0zM550 121q2 11 -9 -12q-27 -56 -63 -95q-18 -20 -18 -23q0 -8 28 21q7 8 13 15q13 17 29.5 48.5t19.5 45.5z" />
    <glyph glyph-name="adieresis" unicode="&#xe4;" horiz-adv-x="479" 
d="M213 478q-5 -11 -19 -24t-22 -15t-23.5 5t-22.5 16q-6 9 -8 26.5t2 27.5q3 7 19 25q22 21 49 17q10 -2 20.5 -12t10.5 -17q0 -5 3 -8q8 -4 -9 -41zM300 518q12 20 30 31q13 7 32 3t29 -17q9 -9 8 -23q-4 -20 -18 -36.5t-32 -21.5q-25 -7 -45 13q-8 8 -8 25q0 16 4 26z
M175 500q10 -4 14 -4q5 0 -2 4q-5 5 -13 5l-6 -2zM573 253q7 -6 3 -22q-6 -23 -47.5 -92.5t-88.5 -134.5q-38 -53 -52 -67.5t-30 -17.5q-21 -4 -33 -2t-30 14q-38 23 -48 72l-5 23l-21 -13q-22 -14 -52 -16q-27 -2 -44 4t-42 25q-90 66 -82 173q5 71 50.5 125t105 77
t122.5 19t102 -39q7 -7 6.5 -18.5t-9.5 -74.5q-26 -168 -29 -250q10 -64 41 -22q5 6 48 81q4 6 7 11q28 44 34 52q11 16 32 50q22 36 25 40q6 7 17.5 8t19.5 -5zM75 319l13 19l-13 -13q-31 -30 -43 -81q-7 -30 -5 -34l5 10q1 4 3 11q7 25 17 49q9 20 23 39zM245 116l5 41
q7 49 23 111.5t29 88.5l8 15l-30 -2q-45 -4 -84 -32q-59 -42 -82 -130q-27 -104 10 -159q15 -23 44 -7q14 10 45 41zM274 119q2 7 0 14q-1 -4 -2 -7l2 -8v1zM330 365q0 4 -1 4q-8 -5 -28.5 -84.5t-23.5 -118.5v-17q11 58 15 76q19 90 38 140z" />
    <glyph glyph-name="odieresis" unicode="&#xf6;" 
d="M171 531q-5 -11 -19 -24t-22 -15t-23.5 5t-22.5 16q-6 9 -8 26.5t2 27.5q3 7 19 25q22 21 49 17q10 -2 20.5 -12t10.5 -17q0 -5 3 -8q8 -4 -9 -41zM258 571q12 20 30 31q13 7 32 3t29 -17q9 -9 8 -23q-4 -20 -18 -36.5t-32 -21.5q-25 -7 -45 13q-8 8 -8 25q0 16 4 26z
M133 553q10 -4 14 -4q5 0 -2 4q-5 5 -13 5l-6 -2q1 0 7 -3zM430 251q2 4 12 3.5t13 -4.5q14 -18 -58 -90q-36 -36 -54 -45t-49 -7q-28 2 -29 -4q-11 -33 -31.5 -63.5t-41.5 -43.5q-14 -10 -24.5 -11.5t-44.5 2.5q-21 2 -36 11.5t-38 33.5q-54 57 -48 160q3 57 18.5 101
t38.5 63q11 9 21 10.5t32 -2.5l14 -3l2 25q6 45 27 64q9 9 31 9q42 -2 74.5 -26t42.5 -61q5 -19 -2.5 -95t-18.5 -122q-3 -8 -1 -9.5t13 -1.5q28 0 70 35q39 31 67 71zM80 332q12 18 10 18q-1 0 -7 -4q-19 -13 -34 -55q-9 -27 -7 -29t13 23q15 34 25 47zM209 117l8 15
l-21 21q-22 22 -37 53q-2 5 -4.5 10t-4.5 8.5t-3.5 6.5t-2.5 4l-1 1q-3 -3 -10.5 -52t-9.5 -78q-3 -60 8 -60q4 0 22 11q16 10 32 27.5t24 32.5zM244 210q19 80 15 149q-3 50 -28 59q-18 6 -29.5 -9t-13.5 -48q-2 -32 10.5 -95t25.5 -88q6 -12 10 -2q3 7 10 34z" />
    <glyph glyph-name="divide" unicode="&#xf7;" horiz-adv-x="482" 
d="M355 194q80 -10 80 -27t-130 -17q-137 -2 -160 -10q-6 -3 -16 7t-9 15t12 12q28 17 91 22.5t132 -2.5zM255 271q-27 14 -39 37q-8 16 -3 39.5t20 36.5q15 12 29 9q24 -4 45 -21.5t27 -39.5q9 -31 -16 -56q-11 -11 -31 -11t-32 6zM301 77q14 -7 30.5 -23.5t19.5 -27.5
q2 -11 -7 -30t-20 -27t-33 -10t-34 3q-8 2 -31 23q-27 29 -21 61q2 12 14.5 25.5t21.5 13.5q8 0 10 4q2 3 18.5 -1t31.5 -11zM274 30q5 10 5 17q0 5 -5 -2q-6 -9 -5 -17l1 -7q1 1 4 9z" />
    <glyph glyph-name="udieresis" unicode="&#xfc;" horiz-adv-x="418" 
d="M185 478q-5 -11 -19 -24t-22 -15t-23.5 5t-22.5 16q-6 9 -8 26.5t2 27.5q3 7 19 25q22 21 49 17q10 -2 20.5 -12t10.5 -17q0 -5 3 -8q8 -4 -9 -41zM272 518q12 20 30 31q13 7 32 3t29 -17q9 -9 8 -23q-4 -20 -18 -36.5t-32 -21.5q-25 -7 -45 13q-8 8 -8 25q0 16 4 26z
M147 500q10 -4 14 -4q5 0 -2 4q-5 5 -13 5l-6 -2zM506 258q11 -3 12 -9q1 -11 -32 -112q-71 -215 -148 -230q-55 -9 -91 13t-45 77l-5 32l-10 -18q-27 -45 -70.5 -48t-78.5 37t-37 106q-2 86 17 165.5t50 114.5q15 16 24 14q12 -2 15 1q6 4 20 -1.5t25 -15.5
q20 -17 21 -52.5t-15 -167.5q-12 -102 -10 -102l4 3q11 9 32.5 60t31.5 90q34 123 55 159q10 17 19 22t30 4q52 -3 64.5 -40.5t-9.5 -124.5q-8 -34 -25 -138t-16 -114l1 -12l22 21q63 58 110 198q15 43 22.5 56t16.5 12zM84 351q14 38 11 37q-1 0 -7 -10q-26 -42 -41 -119
q-8 -41 -12.5 -94.5t-1.5 -75.5l3 -14q1 4 3 37q4 46 9 88q12 82 36 151zM241 113q5 26 3 26q-1 0 -5 -7q-7 -12 -8 -69v-57l3 43q4 49 7 64z" />
    <glyph glyph-name="Euro" unicode="&#x20ac;" horiz-adv-x="636" 
d="M596 558q12 -25 13 -67q2 -40 -2 -64q-4 -17 -15.5 -42.5t-15.5 -25.5t-8 9q-5 7 2 48q9 55 1 103t-28 66q-13 11 -23 11q-27 0 -62.5 -40.5t-59.5 -98.5q-8 -19 -24 -68t-16 -54q0 -1 37 -1q39 0 54 -7q39 -17 2 -35q-24 -11 -72 -17q-36 -6 -37 -7q-3 -2 -5 -24l-3 -22
h19q15 0 59 -6q59 -8 59 -29q0 -6 -3.5 -8.5t-17.5 -5.5q-16 -4 -71 -8l-50 -2l1 -44q1 -105 31 -170l10 -22l26 1q50 4 85 42q14 17 41.5 70t33.5 77q7 28 27 7q6 -7 7.5 -16.5t1.5 -49.5q0 -57 -7 -77q-30 -85 -108 -105q-33 -8 -81 -2q-44 6 -87 49q-71 69 -77 189
q-2 40 -5 43q-6 0 -25 -6q-36 -12 -44 -2q-13 16 31 38q26 14 32 14t8 5t4 26q2 24 -3.5 25.5t-43.5 -8.5q-28 -7 -37.5 -6.5t-9.5 8.5q0 6 -4 8q-11 4 15 22q4 3 8 5q13 8 52 20q33 9 35 11l2 5q1 5 4 14t5 17q9 34 29 85q63 159 148 202q28 14 68.5 3t65.5 -40
q18 -20 28 -43zM505 -30q-6 -8 -6 -10q0 -6 14 14l15 25q10 22 8.5 22.5t-12.5 -20.5q-12 -24 -19 -31zM398 583l17 21q-2 0 -13 -11q-32 -31 -63 -91q-40 -81 -38 -92l13 28q4 8 9 20q28 69 75 125z" />
    <glyph glyph-name="notequal" unicode="&#x2260;" horiz-adv-x="558" 
d="M497 223q9 -5 15.5 -13t3.5 -11q-1 -1 -124 -28q-48 -11 -49 -12t-5 -147q-4 -141 -8 -159q-7 -23 -28 -32t-41 2q-11 5 -24 21q-13 18 -16 47.5t-1 125.5q4 115 0 115q-7 0 -18 -4q-29 -7 -29 6q0 5 -5 7q-14 5 24 27q2 2 5 3q23 12 28 19.5t5 30.5q0 16 -3.5 16.5
t-36.5 -7.5l-10 -2.5t-9 -2.5t-4 -1q-10 -2 -18 9t-3 21q14 28 75 43l15 4l5 66q6 82 16 155.5t17 81.5q5 7 23.5 4t30.5 -14q16 -13 19 -37.5t1 -126.5q-1 -76 -1 -86v-36q5 0 27.5 -5t28.5 -7q9 -3 16.5 -12.5t3.5 -13.5q-4 -3 -25 -9.5t-35 -7.5l-18 -3v-15
q0 -8 0.5 -10.5t2.5 -3.5t7 1q6 1 70 5q58 2 72 -4zM248 -82q2 42 0 84v8l-1 -52l1 -47v7zM252 76q2 18 0 36q-1 8 -1 0v-18l1 -21v3z" />
    <glyph glyph-name="lessequal" unicode="&#x2264;" horiz-adv-x="441" 
d="M403 412q16 0 26 -12q10 -13 7.5 -22.5t-20.5 -27.5q-76 -75 -167 -105l-25 -8l29 -40q35 -49 84 -100q5 -6 14 -2q21 10 34 -8.5t-3 -34.5q-11 -9 -38 0q-19 6 -29 12q-14 8 -44 39.5t-52 61.5q-79 111 -79 121q0 5 4.5 7.5t20.5 6.5q53 14 154 72q67 40 84 40zM366 -24
q80 -10 80 -27t-130 -17q-137 0 -160 -10q-7 -2 -16 7q-17 17 3 27q28 17 91 22.5t132 -2.5z" />
    <glyph glyph-name="greaterequal" unicode="&#x2265;" horiz-adv-x="441" 
d="M131 47q-16 0 -26 12q-11 13 -8.5 22.5t21.5 26.5q75 75 166 106l26 8l-29 40q-41 54 -84 100q-6 6 -14 2q-21 -10 -34.5 8t3.5 34q9 9 38 1q15 -5 29 -12t43.5 -38.5t52.5 -63.5q79 -110 79 -120q0 -8 -25 -14q-54 -14 -154 -73q-67 -39 -84 -39zM323 -24q80 -10 80 -27
t-130 -17q-137 0 -160 -10q-7 -2 -16 7q-17 17 3 27q28 17 91 22.5t132 -2.5z" />
    <glyph glyph-name="a.ss01" unicode="&#xe4c0;" horiz-adv-x="719" 
d="M647 337q15 -26 14 -75.5t-17 -98.5q-18 -53 -55.5 -106.5t-85.5 -91t-96 -54t-91.5 6.5t-67.5 88l-4 24l-22 -14q-21 -13 -52 -15q-26 -2 -42.5 3.5t-43.5 25.5q-90 65 -82 172q5 71 50.5 125t105.5 77.5t123 19.5t101 -39q8 -7 7.5 -19t-10.5 -74q-27 -178 -29 -250
q6 -118 78 -34q25 30 53 78q47 88 69 211q7 41 11 49q4 7 22.5 12.5t29.5 2.5q25 -8 34 -24zM76 322l14 20l-14 -13q-30 -28 -42 -81q-7 -31 -5 -34l6 13l2 8q7 28 17 49q8 21 22 38zM246 120l6 40q7 51 23 113t29 88l7 14l-30 -2q-43 -2 -84 -32q-60 -41 -81 -129
q-27 -105 9 -160q16 -22 44 -6q14 8 45 41zM275 123q2 7 0 13q-1 -1 -2 -6l2 -8v1zM332 368q0 4 -1 5q-9 -5 -29.5 -84.5t-23.5 -118.5v-18v1q5 27 16 76q18 91 38 139zM625 200q11 36 11.5 79t-10.5 58q-3 6 -3 1q0 -4 3 -20q3 -24 3 -43q0 -23 -4 -57q-5 -32 0 -18z" />
    <glyph glyph-name="e.ss01" unicode="&#xe4c4;" horiz-adv-x="525" 
d="M483 370q15 -26 14 -75t-18 -99q-20 -59 -58 -110t-83.5 -85t-96.5 -48.5t-96 -6.5t-82 47t-54 107q-8 33 -6.5 84.5t12.5 90.5q21 77 61.5 124.5t84.5 47.5q33 0 69 -18t57 -46q25 -32 17 -77q-11 -72 -49.5 -112.5t-94.5 -40.5h-25l1 -64q2 -81 51 -78q46 3 99 65
q18 22 31 43q45 84 69 211q6 38 10 49q5 8 23 13.5t30 1.5q25 -8 34 -24zM142 197q-3 -13 0 -14q2 0 8 2q8 1 29 14q57 37 67 116q8 53 -9 67q-13 10 -43 -33q-35 -52 -52 -152zM118 396q18 20 14 20t-24 -20q-34 -34 -55 -104q-11 -40 -8 -36l12 29q13 34 27 63
q15 26 34 48zM467 257q7 33 5.5 67t-10.5 47q-4 5 -4 1t3 -21q3 -12 3 -42q0 -33 -3 -58l-1 -3q6 8 7 9z" />
    <glyph glyph-name="g.ss01" unicode="&#xe4c6;" horiz-adv-x="449" 
d="M375 354q2 -16 -4 -142q-7 -123 -4 -126l-9 -65l-4 -43q-14 -120 -72 -223q-20 -35 -31 -48t-27 -21q-23 -11 -66 -18t-65 -3q-18 4 -43.5 17.5t-38.5 26.5q-14 14 -21 32q27 -19 61.5 -27t66.5 4q22 11 35 27t29 54q38 86 51 161q6 34 6 38q0 9 -17 -6q-51 -42 -113 -23
q-19 5 -44 30q-41 41 -51 88t9 112q17 62 49.5 108.5t69.5 64.5q25 13 54 13q51 -2 78 -19l13 -9l5 18q4 15 7 25q1 3 6 5t9.5 1t4.5 -5q0 -5 3 1q4 6 16 1q30 -13 37 -49zM57 238l1 -1q3 3 12 22q14 27 31 52l16 21l-14 -13q-10 -10 -25.5 -38t-20.5 -43zM267 -23
q8 59 5 56q-2 -1 -6 -30q-20 -121 -66 -219q-16 -35 -12.5 -32.5t22.5 39.5q44 88 57 186zM275 301q4 19 3.5 24t-6.5 10q-8 6 -22 6q-53 0 -95.5 -61.5t-59.5 -161.5q-6 -37 -2 -62q7 -42 17 -48q5 -4 26 -1.5t34 9.5q39 20 56 53t23.5 56t12.5 78q7 68 13 98zM283 143
q2 7 0 12q-1 -4 -2 -7l1 -6zM287 168q2 9 0 19q-1 -4 -1 -8l1 -12v1zM291 210q2 10 0 19q-1 1 -2 -8l1 -12zM306 319q6 33 4 38l-4 -13q-10 -43 -12 -79l-2 -25l4 23q7 44 10 56z" />
    </font>
</defs>
</svg>
