<?xml version="1.0" encoding="utf-8"?>
<!-- Generator: Adobe Illustrator 23.0.3, SVG Export Plug-In . SVG Version: 6.00 Build 0)  -->
<svg version="1.1" id="Capa_1" xmlns="http://www.w3.org/2000/svg" xmlns:xlink="http://www.w3.org/1999/xlink" x="0px" y="0px"
	 viewBox="0 0 437.7 391.1" style="enable-background:new 0 0 437.7 391.1;" xml:space="preserve">
<style type="text/css">
	.st0{fill:#cccccc;}
</style>
<g>
	<g>
		<g>
			<path class="st0" d="M278.3,214.3H73.9c-6.3,0-11.4-5.1-11.4-11.4l0,0c0-6.3,5.1-11.4,11.4-11.4h204.4c6.3,0,11.4,5.1,11.4,11.4
				l0,0C289.7,209.2,284.6,214.3,278.3,214.3z"/>
			<path class="st0" d="M278.3,163.4H73.9c-6.3,0-11.4-5.1-11.4-11.4l0,0c0-6.3,5.1-11.4,11.4-11.4h204.4c6.3,0,11.4,5.1,11.4,11.4
				l0,0C289.7,158.3,284.6,163.4,278.3,163.4z"/>
			<path class="st0" d="M278.3,107.5H73.9c-6.3,0-11.4-5.1-11.4-11.4l0,0c0-6.3,5.1-11.4,11.4-11.4h204.4c6.3,0,11.4,5.1,11.4,11.4
				l0,0C289.7,102.4,284.6,107.5,278.3,107.5z"/>
		</g>
		<path class="st0" d="M79.6,356.3c-10.7,0-19.3-8.6-19.3-19.3v-46.1C25,281,0,248.8,0,211.6V82.5C0,37,37,0,82.5,0h190.1
			c45.5,0,82.5,37,82.5,82.5v129c0,45.5-37,82.5-82.5,82.5H154.9l-62.4,57.1C89,354.5,84.4,356.3,79.6,356.3z M82.5,17.7
			c-35.8,0-64.9,29.1-64.9,64.9v129c0,31.2,22.3,57.9,53.1,63.7l7.2,1.3V337c0,1.6,1.7,1.6,1.7,1.6c0.4,0,0.7-0.1,1-0.4l67.4-61.7
			h124.6c35.8,0,64.9-29.1,64.9-64.9v-129c0-35.8-29.1-64.9-64.9-64.9L82.5,17.7L82.5,17.7z"/>
		<path class="st0" d="M366.7,53.5c0.1,1.7,0.5,3.2,0.5,4.9v12.8c30,5.7,52.8,32,52.8,63.7v129.1c0,35.1-28.1,63.6-63,64.7v0.1
			h-17.6v43.1c0,1.6-1.7,1.6-1.7,1.6c-0.4,0-0.7-0.1-1-0.4l-48.4-44.3l-12.5,0.1h-36.1c-20.7,0-39.1-9.9-50.8-25.1h-20.7
			c14,25.3,40.6,42.7,71.6,42.7h41.8l43.2,39.6c3.6,3.3,8.2,5.1,12.9,5.1c10.7,0,19.3-8.6,19.3-19.3v-25.6
			c44.6-1,80.6-37.5,80.6-82.3v-129C437.7,93.3,406.7,59.2,366.7,53.5z"/>
	</g>
</g>
</svg>
