<?xml version="1.0" encoding="utf-8"?>
<!-- Generator: Adobe Illustrator 23.0.3, SVG Export Plug-In . SVG Version: 6.00 Build 0)  -->
<svg version="1.1" id="Режим_изоляции"
	 xmlns="http://www.w3.org/2000/svg" xmlns:xlink="http://www.w3.org/1999/xlink" x="0px" y="0px" viewBox="0 0 43.4 35.1"
	 style="enable-background:new 0 0 43.4 35.1;" xml:space="preserve">
<style type="text/css">
	.st0{fill:#ff8800;}
</style>
<path class="st0" d="M32.4,34.7h-18c-7.7,0-14-6.3-14-14c0-7.7,6.3-14,14-14c5.5,0,10.4,3.2,12.7,8.1c1.6-0.9,3.4-1.4,5.3-1.4
	c5.9,0,10.6,4.8,10.6,10.6C43,29.9,38.3,34.7,32.4,34.7z M14.5,8.8c-6.6,0-12,5.4-12,12c0,6.6,5.4,12,12,12h18
	c4.8,0,8.6-3.9,8.6-8.6c0-4.8-3.9-8.6-8.6-8.6c-1.9,0-3.7,0.6-5.2,1.7L26.2,18l-0.5-1.3C24,12,19.5,8.8,14.5,8.8z"/>
<path class="st0" d="M39.8,13.3l-2-0.2c0-0.2,0-0.5,0-0.7c0-5.5-4.5-10-10-10c-3,0-5.9,1.4-7.8,3.8l-1.6-1.2
	c2.3-2.9,5.7-4.5,9.3-4.5c6.6,0,12,5.4,12,12C39.8,12.7,39.8,13,39.8,13.3z"/>
</svg>
