<?xml version="1.0" encoding="utf-8"?>
<!-- Generator: Adobe Illustrator 23.0.3, SVG Export Plug-In . SVG Version: 6.00 Build 0)  -->
<svg version="1.1" id="Слой_1" xmlns="http://www.w3.org/2000/svg" xmlns:xlink="http://www.w3.org/1999/xlink" x="0px" y="0px"
	 viewBox="0 0 486 416" style="enable-background:new 0 0 486 416;" xml:space="preserve">
<path fill="#ff8800" d="M439.9,71h-173l-43.7-53.8C214.5,6.4,201.4,0.1,187.5,0H84.4C61.8,0.1,42.6,16.5,38.9,38.8C16.5,42.4,0,61.8,0,84.5v285.1
	C0,394.9,20.8,416,46.1,416h355.5c22.6-0.1,41.8-16.5,45.5-38.8c22.4-3.6,38.9-23,38.9-45.7V116.9C485.9,91.5,465.3,71,439.9,71z
	 M401.6,400H46.1C29.6,400,16,386.1,16,369.5V84.5c0-13.9,10-25.6,22-29v276c0,25.4,21,46.5,46.4,46.5h346.1
	C427,390,415.4,400,401.6,400z M470,331.5c0,16.5-13.6,30.5-30.1,30.5H84.4c-16.7-0.2-30.2-13.7-30.4-30.5V46.5
	C54.2,29.7,67.7,16.2,84.4,16h103.1c9.1,0.1,17.6,4.3,23.2,11.3L246.2,71h-80.6c-4.4,0-8,3.6-8,8s3.6,8,8,8h274.3
	c16.6,0,30,13.3,30.1,29.9V331.5z"/>
</svg>
